<mxfile host="app.diagrams.net" agent="Mozilla/5.0 (Windows NT 10.0; Win64; x64) AppleWebKit/537.36 (KHTML, like Gecko) Chrome/137.0.0.0 Safari/537.36" version="27.1.6">
  <diagram name="Page-1" id="AU6ZhvNn1BWEqoQLjiyR">
    <mxGraphModel dx="1665" dy="749" grid="1" gridSize="10" guides="1" tooltips="1" connect="1" arrows="1" fold="1" page="1" pageScale="1" pageWidth="850" pageHeight="1100" math="0" shadow="0">
      <root>
        <mxCell id="0" />
        <mxCell id="1" parent="0" />
        <mxCell id="kS9kcs_yrtDZrmXysHUf-3" value="&lt;h1 style=&quot;margin-top: 0px;&quot;&gt;PseudocÃ³digo&lt;/h1&gt;" style="text;html=1;whiteSpace=wrap;overflow=hidden;rounded=0;fontSize=20;align=center;" parent="1" vertex="1">
          <mxGeometry x="225.5" y="30" width="330" height="80" as="geometry" />
        </mxCell>
        <mxCell id="kS9kcs_yrtDZrmXysHUf-4" value="Fim" style="strokeWidth=2;html=1;shape=mxgraph.flowchart.terminator;whiteSpace=wrap;" parent="1" vertex="1">
          <mxGeometry x="340.5" y="2120" width="100" height="60" as="geometry" />
        </mxCell>
        <mxCell id="kS9kcs_yrtDZrmXysHUf-42" style="edgeStyle=orthogonalEdgeStyle;rounded=0;orthogonalLoop=1;jettySize=auto;html=1;" parent="1" source="kS9kcs_yrtDZrmXysHUf-5" target="kS9kcs_yrtDZrmXysHUf-4" edge="1">
          <mxGeometry relative="1" as="geometry" />
        </mxCell>
        <mxCell id="kS9kcs_yrtDZrmXysHUf-5" value="&quot;Quantidade de convidados insuficiente!&quot;" style="strokeWidth=2;html=1;shape=mxgraph.flowchart.display;whiteSpace=wrap;" parent="1" vertex="1">
          <mxGeometry x="610" y="1470" width="190" height="70" as="geometry" />
        </mxCell>
        <mxCell id="kS9kcs_yrtDZrmXysHUf-10" value="" style="edgeStyle=orthogonalEdgeStyle;rounded=0;orthogonalLoop=1;jettySize=auto;html=1;" parent="1" source="kS9kcs_yrtDZrmXysHUf-6" target="kS9kcs_yrtDZrmXysHUf-9" edge="1">
          <mxGeometry relative="1" as="geometry" />
        </mxCell>
        <mxCell id="kS9kcs_yrtDZrmXysHUf-6" value="pessoas &amp;lt; 50" style="shape=manualInput;whiteSpace=wrap;html=1;" parent="1" vertex="1">
          <mxGeometry x="360" y="1240" width="80" height="70" as="geometry" />
        </mxCell>
        <mxCell id="kS9kcs_yrtDZrmXysHUf-11" style="edgeStyle=orthogonalEdgeStyle;rounded=0;orthogonalLoop=1;jettySize=auto;html=1;exitX=1;exitY=0.5;exitDx=0;exitDy=0;" parent="1" source="kS9kcs_yrtDZrmXysHUf-9" target="kS9kcs_yrtDZrmXysHUf-5" edge="1">
          <mxGeometry relative="1" as="geometry" />
        </mxCell>
        <mxCell id="kS9kcs_yrtDZrmXysHUf-12" value="Verdadeiro" style="edgeLabel;html=1;align=center;verticalAlign=middle;resizable=0;points=[];" parent="kS9kcs_yrtDZrmXysHUf-11" vertex="1" connectable="0">
          <mxGeometry x="-0.1675" y="-3" relative="1" as="geometry">
            <mxPoint as="offset" />
          </mxGeometry>
        </mxCell>
        <mxCell id="kS9kcs_yrtDZrmXysHUf-16" style="edgeStyle=orthogonalEdgeStyle;rounded=0;orthogonalLoop=1;jettySize=auto;html=1;" parent="1" source="kS9kcs_yrtDZrmXysHUf-9" target="kS9kcs_yrtDZrmXysHUf-15" edge="1">
          <mxGeometry relative="1" as="geometry" />
        </mxCell>
        <mxCell id="kS9kcs_yrtDZrmXysHUf-9" value="pessoas &amp;lt; 50" style="rhombus;whiteSpace=wrap;html=1;" parent="1" vertex="1">
          <mxGeometry x="360" y="1350" width="80" height="80" as="geometry" />
        </mxCell>
        <mxCell id="kS9kcs_yrtDZrmXysHUf-18" value="" style="edgeStyle=orthogonalEdgeStyle;rounded=0;orthogonalLoop=1;jettySize=auto;html=1;" parent="1" source="kS9kcs_yrtDZrmXysHUf-15" target="kS9kcs_yrtDZrmXysHUf-17" edge="1">
          <mxGeometry relative="1" as="geometry" />
        </mxCell>
        <mxCell id="kS9kcs_yrtDZrmXysHUf-15" value="qtdCarne &amp;lt;- 0.3 * pessoas" style="rounded=1;whiteSpace=wrap;html=1;absoluteArcSize=1;arcSize=14;strokeWidth=2;" parent="1" vertex="1">
          <mxGeometry x="70" y="1440" width="170" height="45" as="geometry" />
        </mxCell>
        <mxCell id="kS9kcs_yrtDZrmXysHUf-20" value="" style="edgeStyle=orthogonalEdgeStyle;rounded=0;orthogonalLoop=1;jettySize=auto;html=1;" parent="1" source="kS9kcs_yrtDZrmXysHUf-17" target="kS9kcs_yrtDZrmXysHUf-19" edge="1">
          <mxGeometry relative="1" as="geometry" />
        </mxCell>
        <mxCell id="kS9kcs_yrtDZrmXysHUf-17" value="qtdCarne &amp;lt;- qtdCarne + (qtdCarne * 0.08)" style="rounded=1;whiteSpace=wrap;html=1;absoluteArcSize=1;arcSize=14;strokeWidth=2;" parent="1" vertex="1">
          <mxGeometry x="70" y="1505" width="170" height="45" as="geometry" />
        </mxCell>
        <mxCell id="kS9kcs_yrtDZrmXysHUf-25" value="" style="edgeStyle=orthogonalEdgeStyle;rounded=0;orthogonalLoop=1;jettySize=auto;html=1;" parent="1" source="kS9kcs_yrtDZrmXysHUf-19" target="kS9kcs_yrtDZrmXysHUf-21" edge="1">
          <mxGeometry relative="1" as="geometry" />
        </mxCell>
        <mxCell id="kS9kcs_yrtDZrmXysHUf-19" value="qtdBebida &amp;lt;- 1.5 * pessoas" style="rounded=1;whiteSpace=wrap;html=1;absoluteArcSize=1;arcSize=14;strokeWidth=2;" parent="1" vertex="1">
          <mxGeometry x="70" y="1575" width="170" height="45" as="geometry" />
        </mxCell>
        <mxCell id="kS9kcs_yrtDZrmXysHUf-26" value="" style="edgeStyle=orthogonalEdgeStyle;rounded=0;orthogonalLoop=1;jettySize=auto;html=1;" parent="1" source="kS9kcs_yrtDZrmXysHUf-21" target="kS9kcs_yrtDZrmXysHUf-22" edge="1">
          <mxGeometry relative="1" as="geometry" />
        </mxCell>
        <mxCell id="kS9kcs_yrtDZrmXysHUf-21" value="&amp;nbsp;qtdBebida &amp;lt;- qtdBebida + (qtdBebida * 0.12)" style="rounded=1;whiteSpace=wrap;html=1;absoluteArcSize=1;arcSize=14;strokeWidth=2;" parent="1" vertex="1">
          <mxGeometry x="70" y="1645" width="170" height="45" as="geometry" />
        </mxCell>
        <mxCell id="kS9kcs_yrtDZrmXysHUf-28" value="" style="edgeStyle=orthogonalEdgeStyle;rounded=0;orthogonalLoop=1;jettySize=auto;html=1;" parent="1" source="kS9kcs_yrtDZrmXysHUf-22" target="kS9kcs_yrtDZrmXysHUf-27" edge="1">
          <mxGeometry relative="1" as="geometry" />
        </mxCell>
        <mxCell id="kS9kcs_yrtDZrmXysHUf-22" value="qtdSobremesa &amp;lt;- pessoas" style="rounded=1;whiteSpace=wrap;html=1;absoluteArcSize=1;arcSize=14;strokeWidth=2;" parent="1" vertex="1">
          <mxGeometry x="70" y="1715" width="170" height="45" as="geometry" />
        </mxCell>
        <mxCell id="kS9kcs_yrtDZrmXysHUf-30" value="" style="edgeStyle=orthogonalEdgeStyle;rounded=0;orthogonalLoop=1;jettySize=auto;html=1;" parent="1" source="kS9kcs_yrtDZrmXysHUf-27" target="kS9kcs_yrtDZrmXysHUf-29" edge="1">
          <mxGeometry relative="1" as="geometry" />
        </mxCell>
        <mxCell id="kS9kcs_yrtDZrmXysHUf-27" value="pessoas" style="strokeWidth=2;html=1;shape=mxgraph.flowchart.display;whiteSpace=wrap;" parent="1" vertex="1">
          <mxGeometry x="97.75" y="1785" width="114.5" height="40" as="geometry" />
        </mxCell>
        <mxCell id="kS9kcs_yrtDZrmXysHUf-36" value="" style="edgeStyle=orthogonalEdgeStyle;rounded=0;orthogonalLoop=1;jettySize=auto;html=1;" parent="1" source="kS9kcs_yrtDZrmXysHUf-29" target="kS9kcs_yrtDZrmXysHUf-35" edge="1">
          <mxGeometry relative="1" as="geometry" />
        </mxCell>
        <mxCell id="kS9kcs_yrtDZrmXysHUf-29" value="qtdCarne" style="strokeWidth=2;html=1;shape=mxgraph.flowchart.display;whiteSpace=wrap;" parent="1" vertex="1">
          <mxGeometry x="97.75" y="1845" width="114.5" height="40" as="geometry" />
        </mxCell>
        <mxCell id="kS9kcs_yrtDZrmXysHUf-39" value="" style="edgeStyle=orthogonalEdgeStyle;rounded=0;orthogonalLoop=1;jettySize=auto;html=1;" parent="1" source="kS9kcs_yrtDZrmXysHUf-31" target="kS9kcs_yrtDZrmXysHUf-38" edge="1">
          <mxGeometry relative="1" as="geometry" />
        </mxCell>
        <mxCell id="kS9kcs_yrtDZrmXysHUf-31" value="qtdBebida" style="strokeWidth=2;html=1;shape=mxgraph.flowchart.display;whiteSpace=wrap;" parent="1" vertex="1">
          <mxGeometry x="97.75" y="1965" width="114.5" height="40" as="geometry" />
        </mxCell>
        <mxCell id="kS9kcs_yrtDZrmXysHUf-43" style="edgeStyle=orthogonalEdgeStyle;rounded=0;orthogonalLoop=1;jettySize=auto;html=1;" parent="1" source="kS9kcs_yrtDZrmXysHUf-33" target="kS9kcs_yrtDZrmXysHUf-4" edge="1">
          <mxGeometry relative="1" as="geometry" />
        </mxCell>
        <mxCell id="kS9kcs_yrtDZrmXysHUf-33" value="qtdBebida" style="strokeWidth=2;html=1;shape=mxgraph.flowchart.display;whiteSpace=wrap;" parent="1" vertex="1">
          <mxGeometry x="97.75" y="2085" width="114.5" height="40" as="geometry" />
        </mxCell>
        <mxCell id="kS9kcs_yrtDZrmXysHUf-37" value="" style="edgeStyle=orthogonalEdgeStyle;rounded=0;orthogonalLoop=1;jettySize=auto;html=1;" parent="1" source="kS9kcs_yrtDZrmXysHUf-35" target="kS9kcs_yrtDZrmXysHUf-31" edge="1">
          <mxGeometry relative="1" as="geometry" />
        </mxCell>
        <mxCell id="kS9kcs_yrtDZrmXysHUf-35" value="qtdCarne * 0.08" style="strokeWidth=2;html=1;shape=mxgraph.flowchart.display;whiteSpace=wrap;" parent="1" vertex="1">
          <mxGeometry x="97.75" y="1905" width="114.5" height="40" as="geometry" />
        </mxCell>
        <mxCell id="kS9kcs_yrtDZrmXysHUf-40" value="" style="edgeStyle=orthogonalEdgeStyle;rounded=0;orthogonalLoop=1;jettySize=auto;html=1;" parent="1" source="kS9kcs_yrtDZrmXysHUf-38" target="kS9kcs_yrtDZrmXysHUf-33" edge="1">
          <mxGeometry relative="1" as="geometry" />
        </mxCell>
        <mxCell id="kS9kcs_yrtDZrmXysHUf-38" value="qtdBebida * 0.12" style="strokeWidth=2;html=1;shape=mxgraph.flowchart.display;whiteSpace=wrap;" parent="1" vertex="1">
          <mxGeometry x="97.75" y="2025" width="114.5" height="40" as="geometry" />
        </mxCell>
        <mxCell id="kS9kcs_yrtDZrmXysHUf-45" value="" style="edgeStyle=orthogonalEdgeStyle;rounded=0;orthogonalLoop=1;jettySize=auto;html=1;" parent="1" source="kS9kcs_yrtDZrmXysHUf-44" target="kS9kcs_yrtDZrmXysHUf-6" edge="1">
          <mxGeometry relative="1" as="geometry" />
        </mxCell>
        <mxCell id="kS9kcs_yrtDZrmXysHUf-44" value="Fim" style="strokeWidth=2;html=1;shape=mxgraph.flowchart.terminator;whiteSpace=wrap;" parent="1" vertex="1">
          <mxGeometry x="350" y="1150" width="100" height="60" as="geometry" />
        </mxCell>
        <mxCell id="QHNLWOqL9P8p_Cppvk_T-1" value="" style="shape=image;verticalLabelPosition=bottom;labelBackgroundColor=default;verticalAlign=top;aspect=fixed;imageAspect=0;image=data:image/png,iVBORw0KGgoAAAANSUhEUgAAAkcAAAKOCAYAAACspL2LAAAAAXNSR0IArs4c6QAAAARnQU1BAACxjwv8YQUAAAAJcEhZcwAADsMAAA7DAcdvqGQAALHUSURBVHhe7N2/buNG+zbgm98JuNkkJyAZWL96T2CI/AKkk7cxgkCtOzJACrlxZ2BjwJ0bsnhhy51bITa2WbILEBvyCUQrAyZPIGsX3iN4voL/hiOKpCx71+u9L0DYNYczHA4p6dHMSGPd398LDGtra/j06RPW1tbMJCIiIqIX7f+ZG4iIiIi+ZQyOiIiIiDQMjoiIiIg0jxcchYBlJQ/bNxM/n9D9ssdfKHSTxnFDwLeT//uxudfL9a2fPxERfTUeLzjqAyJA5JkJn1d/BEyG5taEbwOhufFz6W4k/250gfVe8v/1TmmXF+1bP38iIvpqtA+OQsBNP/BbFuA+oHcmz28DoT/fy+SnnQuWBdhGIJN1PNh+ktfOysl3qOm5ipP9d66AzXSfrBMDANy0rKx+YVhRfkP9WssDAgV09YTYaGC7fCJxVinzAqQnbrtpuqs1lpvskvXUuPoJpGk54/j5sVuUj7r6GRaePxER0fPQPjjqA7unSe+QCLA1K4KLNnwb2NhL858CN2NAeUUvj28D2C3Kn5wC72wgG3jpjwAJgKsd4GAGnEZJOd18h5qeqw4wEcBTQJCWLwKM+knyKALUFbBxmuTf3AT2IiDoAe/Sc2yqX6POehEQdDcA9AC948Tf1hpIgK20dyVz+C45iSx9dz0NQPpJpa+mwKkAHoBNAJEAvWkSwQ0nyclP0+2SpunDWvY2sDspyj9dTwOkFuXX1i/VdP5ERETPRPvgKAYOt4uOgYOpuUONGBgDGKbBCDrAcM9I7wFD/c2yk8QH743oQ3nAZAR0Osk+ncd6g1XJ8TvrAByg3ylGgpap32J9QCZJQNAZAjIqJw/3gPGm1sAATtPIMfaBk5MizbKA7iZwMivyq0FS9joAZyv5f1b/zN6oCEj04Cv2gd5eOVjp9IHeuIj+6spvU7+m8yciInomWgdHbrfcsXE6MPeg1fSLnpcoAgYAttOel856EhVmjZ8/nkmA8dzrR0REtIR2wVEMTBXwJp0jEofA4djcqUYnea/PR3FiwD8w0o1RHsTAuynw5rF6hlI36THidN5Sq46fz1E/2wbC9ACdTtJD01tPE9NeHH+JccxldIbA9KDcGHEITNPeokZPXD8iIqLP6f7+XsyHiOT/ZiKv6BJQjkiQ/u1FSboz320ggEigleGodLtK8itPSxQRz9GOoYy8FWU72g5V6ebxo0BEZWlKJDDr7ohIkB7fK845O05d/VamHK2B0kZO65eIjHSVViytcFbRIK2kF4l46f5KyxdIsU+2X2X52cVpUX5QlT+rHxER0dfF+lJrq4V+Mq1m0dfuiYiIiL6EdsNqjyT7Rrllpd84Y2BEREREz8wX6zkiIiIieo5a9Rzp39DmY/5BREREL0er4KiYZctH1YOIiIhejlbBEREREdG3gsERERERkYbBEREREZGGwRERERGRZsXgKIZ/7CK8M7dnmtKfn/jShrVvwb6MEV/asC9bLTBC35QQ7r4N/yu6r+lL4esHLWuZ15dV769V8zd56vKfzkrBUXy5jfF/dtF/ZaYkmtJN/rEFa7/64V6bez+BOx/bHwaIfg+Av7rofuhh78dWi4s9vTsfdkW7fLa2IU0fo7cTDFve189BFvR/6/dKeN72TWd1yevZ9mc7Hj1/7e6/dq8vq95fq+Zv8tTlPzlzXbVFa6vNufVEHRmLo+ma0itF4h05c2uWBWfz275JM0fURWnBNbYNtRacKfFuza3flqrXl6fkHTnlJRLpm/bY99+q99eq+Zs8dflP6YE9RzH8P2fY+23R+h9N6YtEmGEDfQC4dvMhrf4vI/Sv3aSn5DxZ+T37JGwd+2neEO6+BfvcLXpYjl2Y68THl1r6vg333C0i22sf7nFa7r4F+9w3OgVjhOdFelX5zZJ6Wvvu0h2O8d0UvVedpIz0vPW2sbO6n/tw01449zppy+R8QvhG/fWoPjxPz/syRnydtZP2ScfovbLPfWPI1Gif/eJ6AW3ad4HPVv+m+yO9Bxf2wDzR+edWK//mYw/rKO6NUtuguX0a27fJXQg/r59dPFfPw6JtFz6/m86v6fmfpO/8e4LNRe1ntu+yz++70GjbEDNsIO97bmjfNurvz7r2abp+Te23Qv0f6/nbcH6Nnvv91/T60nR/1davRf6HXt/MU5f/uZm9Rm16jqILJc7M3FpoSl/o1hP1BwTpwyxjrlyjJyW6UIIjT6L003FwVt4/OFOiLoIikr0NxKmJbIMzR/ukHYl35og30443c0SdLfk5IDvHI2/hcRcJzoq2gXHc6EKl2wJxsrbT22fmCP6AqLPi/KOZJ+qP8vlHF0rUkRIcORLcpn9fRCISiKflzXgXRT2Kfav/NpXbt8FnqH/b+2NRD4x5vubfpqXOv6I8829TufxAnCMlKm0XERG5TXpqkxKa20dq27dJcnz9+ROcYe586p7fJrP9mp7/SR0W9Wav+Py+9Yy2Tds7z9+ufeu0vT8zZvtIw/Wrb78V67/y83de1fkt9tzvv0Ll60vj/TWvVL/G/Cte36cu/wtYPji69WovSGN6He1mrOp+NG8a82Y2h5iiC+PmqK1XJN6ZKoKPNIDJUy+cuWBNJGp1sz+WvE0qnrRF2yRPwMhon0UvMmabBmcQp2K/6MJom4o2kltPnCNHnDNPvFmQv0ikJdS2b5Mnr3/j/VGoujdFnvb8RVYs/3b+jUi09mtsn3z/6vZtUvX8mX/+1j2/G86v6fkv9de4qn7LPL/NY4uUn6dt23ehmronmttHGq6feQ56+61a/1Wfv23Pb5Gq6/uc7j9d1euLWbaI+T5QX7+m/Kte36cu/0tYMjiqnhNUaEqvZ96sZfNle0flm9k7K/fG6Dd7fdki3hHKn8qMAMR84oik+7S42R9HJJ7Z2zRz8h6kvG20J6Be5+BsvidOD6QyZhtnKm/+Oumn2ixPU/s2eer6N90fhUCciiBjziOf/5xlyzf/FknO5Sx5cWpqn8yi9m1S9fwpX9P653fj+TU8/0Wq82Tm9pVlnt/VPQL6PdW2fRdpuj/btI80XL+69lu1/qs+f9ue3yJV1/c53X+FqteX5vurvn7N+Ve7vk9d/pex1Jyj+HIbs59GyZygCk3pTaJbYOM7c2vq7j3G2XwkxIjvfIwxwJt8Rn+IGdaL8U3EuPnYy9M7r3qY3mkjsHfJ+HcythsD33uY/NhHB0B8F8L9+ySd35PofgeMr4vx4fjahf03sPfLMmcbpzP4l5inkYsw+14/v4T6rpuee9o2tzPguy4A4OZjsd/NR+BkrP2swl0I9/gA+GmolamVY+h+B7y7NmZgXful+Th2af6Grrl9mzx1/evvD83dDaY/aOPomSc+/1XLj++muPrwHnF6vnHafhv/l8wLbGqfxOL2bdL9DpjdahvuQhz8o4rne+3zu/n8mp7/SNsgz5Ne32xe42rP7z42sFPcK3cx/HMb3b+K17N27btY/f3Zpn3QcP3q22/V+q/2/G17fos99/svV/n60nR/NdWvKf+q1/epy/9CzF6jhT1HTV2CTekNvKNyd9v8p4xI20eJc+aI+iMdM87m8fxRzMXJ9jV7f4ruPG18VNJIO09T6f/1yL/cbamMTwntJPOBsODT0ULpeH3Vw5mlZabnnnVfOrMo3Z58CvGOHPH0rs2jcpev2f4w2k4k6SYu2qjcfqX5UBXlN7dvvaeuvzTcH3PnZ9R/Lv2Rz3+V8pO8xXOm6vykoX3atG+9SLyjrH1Vet/qz4Oa57fUn1/b57/M9DmNShxt/snKz+/bQBy9/hfZ+RTXuK5926i7P2vbp+n6tWy/Veq/8vO34fyaPe/7b+75bZ5f0/1VV782+Ve8vk9e/hdg3d/fz60rv7a2hk+fPmFtbS3dEsM/PsT6b4t6hZrSn4sY8fUhtq+3MGn1ifClCOHuv8Pu29F8j8dX4WuvP80L4R7fYPc3veeAXqbn+Pzl/Uf1WgZHL8S1C3t8gqsfPETfypPizof9vx1cpX+qnyNMnssPW7bxtdef5oTnFjb/Sf/4wYMs/ZMf9NV4hs9f3n/UxrcVHBERERE1WGpCNhEREdFLx+CIiIiISMPgiIiIiEjD4IiIiIhIw+CIiIiISLNicBTDP9Z+9XROU/q3KoTb+leyl1p3usKq+enleUn331OX/yW8pOtTZZnz+xJWrd+q+elZMH8de+EvZFdYtJhgpim9SlT6pU8nWUn5mf+S5lMxf2F0Wavm//y0X/vO7wFzzR7tl1iX/aXxR5C0aXJc/f+ZaOaJ0n8ptvQrzE9vbj2nFax6/6yav8lTl//crXr+q+b/WpV+qfmP+efwc/Y4z+/kdXZ+FYrq17dv1cN7ju58bH8YLP5Br6b0Ktcutv8G9n4XyFuB/LqB6b/l9Wm+JcPfBN4PDz//VfOvLFv/yVw/aJG7G0z/GyTXPnuUfqAthn+8iel/kn2in4CDheuNPYUQs38B/HcL/dL/E/Glje1rYO/XrP6n2Lo+/KyfIG8+9rD+SNd71ftn1fxNnrr8527V8181/1fpzsf2hw2c6q8xb5/7yg6FR3l+391gCm1duVz169u36oHBUQz/zxn2Fv6yaFN6tfhuit5PI/Szi/9qiIn+k/N3Pux9C1b6sM/9pYfs4ktXK8OGe+5qb14xwnM7L986dlG89YZw9y3Y51p+LT1ZUDZ5uNdGXY/9ZKdrt7yP6S6Em5djw79LFmLMz//ah3tc1M8+98ud4k35a8+vIn3fgvWQ4CNdeNC9Boa/TDBqGyBri+ZWiS+3sfN9gMmPyUtZ5/UWeh9vzN0qxZfGeWmPucUfGzivi5fS/P93PrZv9zD5ZVjcv+ig/zpd8DK79ml75vXJ7g00Xd/6+y9L3/n3BJuLrt+Xvv9Wff4+dfl8fag5v4r0/SVfH2rPr779EjXHb/H88o8tWP/bwdW/O+hW1aO2fona+6Mpf+392XT+LZ7fteVrbme4+mGA4YIgq/L17VtkDqm1GVaLLlRll1ymKX2h20CcI0e8WVSx6GMg3lkwt927aN8hGpwpURdaGenxkr8j8c6SY2eimVNaTDe6UIIjT6K0WzM4K5+nZw4BzhxxKoYVK7tGbz1R+mJ8t4E4R6p2Md/gTFu8sTF/u/MrLzS55LDobXIMR2/jZRgL7JrnPtdut56ouWG3J3Tricq64PX/p201d00lvQfSe2TueTFzatu3dH1b3H/JkGNze8y1o7S5f+Ytd/+t+Px96vL5+tDq/FZ6fUhVnl+L9jOPV/V30/Nrbp8Ki+pXf38UqvM3359N51///G4uP2O2W67m9e1btHxwdOvVPiEb09u4jSS48ERpLyaRvqJz7ZyUBRrqFV0Ub2La1tLNGJwZ80su5t+8ipsuEGfB8byKuTJm2SLmk7u8arh57k3525yf3HriHDninHnizYL8SdpGNHNWngMUXahkNfRbSc639GaSvDCUntIVL37VKuYyPfJ8g+oXxPI9Yu5TfqGuv75ScY3N+6/pHs98mftvtefvU5ff1HZtnj9mHc3r8y2/Puiqzk8q6mi2X9Px659fCXOfKpX1a7g/dFX529yfbc5/UR3alJ9p0wa09JyjdLhs4Yr2Tektveqg/+MQp/9JhyQARLc9BKVx4qo5KYvF12P0aroIo9vp/Bjs9SGm36/nf95gA/qgT3Q71f4COq8HwIf3STucv8NWZTskY7nlwaMQ7z5uzI17x3dT9F4lnd7+cRfj7/YQZec9cKD+8ybdszl/m/PDqyFGv40w+mWI4XfA4Z9mt/ZindcjRD9t4N2xC/96uWGqTOfHCSa/DNF5BQAdrH9v7oHSEID/9xSD122G7PoYmffNI8836H7XMzcBCHF4u5V2X8dz8wXef0B+Teqvb6Lp/msalkx8qftvlefvU5fP14c257fK60Oh6vwSTe1Xf/z651fm5mP573nV9Wu6PwrV+dvcn43nX/P8blN+pv/LZOGQGhWWCo7iy23Mflr8ZtKUXic8t0oTd+NrH9t/FTd39zvgnfGmG1/7rSe7dl71ML3T8meThdOx4e53wPhae6pdu7D/hhbohZhhvfTmfPPRmMz46g0GmMG/PAT+b0E73N1g+oM+zg8AfWxgpxinTufsdPPzj4HvPUx+7KMDIL4L4f59kr+wNedvcX7XLuxl5g9U6LweYvTbLtavt2Gfh0t9STi8tMtzf+58vMOe9iTuYwPj9HrHCM+72PleT/+yOq83MP7TR5zej/G1D/f8BrtZ+969xxjZG1SM+M7HGIP0/mm6vmh1/+lvdtn9PTef6gvefw9//j51+Xx9aDy/R3h9ABadH5rbr+n4tc+vTAygYULzgvo13R/F9ur8zfdnw/k3PL+by6elmUNqC4fVarr0RFqk14rEO3LE0buF9fHxbC/9K5gV6U2C2vLL3dLqTBvCufWK46bnmHzNEXPDOlVduSIiwVlFl6f+Ndpb7SvqfyhxLqLyV21LP3Gg0v8vkb/u/Krqd2R06S7r1lv6Zxj066Mqxs/161CZ/qXl9VPizI31Z9cjTT9Lrmd+/9Rd37b330zbz/gZgbnrq5cvLe6fuvq1yb/q8/epy+frw+Lzq6rfkq8Pc/n1+rVov7n8c8evf37N5TeuTVV6qf0a7o82+Rfeny3OX6T++S115WuCMyTzmswEmmPd39+LGTCtra3h06dPWFtbS7fE8I8Psf7bgk87jelEL10M/3gb+JVd1kREX7uWwRER1YkvbXT/uipv/MFB8Kv20xRERPRVYHBEREREpFlqQjYRERHRS8fgiIiIiEjD4IiIiIhIw+CIiIiISMPgiIiIiEizYnAUwz92q1f+BVqkEzVZ5ne2iYiIVrfSV/njSxvbOMXkR/PH0hNN6SV3Puz/7cD4pRgAgDMQbPxtYedfAFDwfp9gCH1/B9HbEaJzC5v/mLkB/OAh+mmG7vjESFBwBhOMXmd/h3D3N5HtpX6OtLqX09I94AxOMcrX96rLT8vyjy3s/Jteb/5WEBERfSYPD47ufNh/ApOKhe2AFulVrl3Yd7ulgCI8d4Ffkl/eDs9tvAMw/a4IuPxjN/9lbv/YTn6h+NaFdb0F+aWf1ONiHZNf+nPBWnztY3s8w+nbUXktnGsX9jUAbGGiLw5p1u/Oh/2/MQbmm/ei/LQ0/9jFm9+M60NERPSEHjisFsP/c4a9hYFPU3q1YmG9EO6xDwDop4ERANx87GHrlz30PrxPB1tCzPLFBkPM/k0WFYzvplDp6sXx9ThfyTi6RWkxz87rIQY/AFG+Bcmx/wZOf9lC7+NNKSW+m18l+vRnYFxa8G9x/jx934K17y45YJTks89d2PsWrH0L1rG2KvW1m2xLF2eML+10Hz9Ps4/Tbec+3OOkjNLCiXd+Ufa+BfvcLw2Jhufp9ss4WZhy34K1b2uLG8YIz9NjmPVr4y7M65WUm1zf/Io11G+h7PzPk8Ua9fqVFmZsLN84v/2ivR+UbrbPtQ83u0bp8Y2lJBvKJyKiR2EuOrtw4VnNosUTM03pi5QW75tbxDYQ58jL90vKD8SZ209PL/P0hVBvk4UWzYUhg7Os7sliuHrpVeWa51qXX0RbZPABi/9FFyrJl55DcawivVS/mZOfX3Sh0jYNxPkjPQ8tXSQQr2IxV89YQDW6UKKOVL6wYXSRtWEk3pkjnrYYYjRz2i9GfOuJKi3GGIhzpLT87eq30MxJFnLUyohmnqg/nPTv5vKLc33I38u3T3BWXlyzvnwiInosy/cc3fnYvt3T5ukYmtJr3Hx0ELwVyMDJe35ydzeYfr8OAOi/dnByHQJ3N3mvkO7mo8LGd+bWGMAVdv6XfuL+3zZmr435UNcuDpDVvYP176e4KfUczJcb3aLY1pg/6W2avBXIb8Olh4qi2x6C34bopEN43e96pfqU6lLqiUvSvP9L++B+8LD7upweXx5g559NdPVeiX0LOx/KvV/R7RV6/zmF/JasGdb5cYLJjx3El4eYvR5hmM+/Ajqvdxf0ns0LL2bYS8sEALzqY/RTL7++beu3SHw3TeaA/dLP273zeoi9/07x/q5d+Z3XA/Q+HMI99+Ffh8Dr5NzbpDe3T1zu1dq3sPlxozRcW1c+ERE9niWDo3S4bOE8mqb0OjGADXQB4PUoedG/dothg9tZEQi93oX38QD+9QzGQBeAGDP08GZuAm+EGTzIW4G8jeD9AEyNIRP/7xNc/bNZvDn9c4XZbbHHzcdk2C535+Pg4yA9VnP+Vd1k7ZOKbvWzj+fq9/5DESzlaWmQ2TGCqei2lwSm5sMYGr356GCr4g05up3OBY64PswD2noh3n3MhkcL5eCuXf0WiW6vSkOqiRDv0uvXqvxXQ4x+G2H0yxDD74DDP41hsZr0pvbxj7sYf7eHKDvuwIH6z5vy/jXlExHR41kqOIovtzH7qZgDZGpKrxdhlr5p6/K5Q6X5Ph28+Q8w/lCeQwQAuHuPqT5PJd9e9DwBHQx/20Pvr+18zkl8uY3xf6LSG2P0s8L0Lpv1oc9vSiZz23+OMfg16QFqzo8kgDq2jHk6bYWYQW+fJBjKg8C79xjn9YsR3/kYIwvctLprQebNx7wwdL8D3pXmTiXnWK5nuQ103e+A8XXxVh1fu7D/RstAuY8N7BTzn+6SXpTuX0Xw1q5+i918BE7G2s9K3IVwjw+An5Lr11j+tQu7bn5PQ3p9+8TA9x4mPya9WvFdCPfvk/K93VA+ERE9nvbfVtO+9VWpKb3OtQtr7mv2CWcgGEFL/2+QfAsNIdz9A2zk3xSb/6p99lX6+NJG96/0RwJ+8PLegPDcwuY/CuqHK1z9W86TfI082eYMAmBsfI3/BwferyMMX2Xl1OWXdKgtreMPDoL0G3at6D9zkJ5/Vn7xcwEx/ONu/nMHzn97mP5zAvzsoffXTlL3/waIvjtA968rOIMIGHdxkv4MQhLgudj+6yQ5zg8Ogl+LYS79fDLlnyqI4Z9vY+efpJ3Vfz2c/rLE0OFdCPfPTZxk9f/5FBsfuqWv8tfVr4l/7AL/mWInvw+K65epK1+/xkjT9fxN6Y3tc+3CHmfHVlD/XuEq+9kK4x4DqsonIqLH0jI4iuEfH+ZfmZ/XlE70JYVw999h1/zJBiIiogotgyOir5Tx46L8YU4iImrC4IiIiIhIs9SEbCIiIqKXjsERERERkYbBEREREZGGwRERERGRhsERERERkWbF4CiGf6z96vCcpvQnchfCPm77K9TlX0WmZbH96Dn7Gu/PEG7rX9H/Gs+P6PlbKThKlszYXfgrxU3pVeJrF3a2+OaxC7d1kJO682H/+Q57v2a/nL1YspRHsYTIU4svywuLZuf42YPHR/K52+9bEJ4veb/TQo95f2bP3XyJmyUtl7+P0dvn9/oF3p8rW7X9Vsp/5xfvrVyKqNHDg6M7H9sfBot/UK8pvcq1i+2/gb3f0/XJft3A9N+qRWRrvBpioq/uXmP4m8D7YcnyV9D5cYLgvwpedn5vBdFPwOafvrnrV+Fzt99X485/8Dpo5uLB9HCPeX9mz925xYNbWjV/lcc8v5Ka+5f352pWbb+V8r8aYpItap0t4k4LPTA4iuH/OcPewhXRm9KrxXdT9H7SAptXQ0z0JR+ufbjHRe+Lfe6XOpX1npnKT2h3IdzjrNfGhn+XLKTatvxECHffgrXvVqQ1M2/uzustOOn/w/P0uJex1oOmfVLQI/+0fmavU3yp9bzt23DPXe2TRozwXOu9Ol5yVfdHab96tfVvKL++/ZLrZp+XeyZL59+ifVvRFvdtL6nfzr8n2NTqkH/C0+rmXut/L3kNq1y76fmG8I37Q/+UWt++7dqv9vo+8/vz5mMP6/CNY2g7NJx/Y/70OlhP+vrVQuX9y/tztfuzof2AhvJb5G95/eO76fyC7TTv/v5ezIeI5P9WiS6UODNza6EpfaHbQJwjR7xZJJGZViE4c8S7NbeKBGdqfvutJ+rIkSDbfhuIc6REnQXGjoXK8m89UX9AcOS1qmNZII6e7zYS70iJuihKii6UqCMlSOsaXWTpgXhnwdwxvYui/sGZEnWh7ZO2Z/J3JN5Z0raZaObUnn/JY7Vfjfr6z6sqf3H7Jf/HkSdRmic40+/T5vZtq/L+ayW5Pxa69cTJ2vvWE+cBdVto5gj+gCitDaKZJ+qPcvsvbt/m9qu/vs/9/kzLKx0jEi+vf9P5N+UvVN4/T35+hcrji/D+XOX+FGlovzbl1+Wft+j6L76+pFs+OLr16m+IpvQ2biMJLjxRR/pFjMQ7U4I/UDwW3CjekSNmDYKz+W0yc7TApH35D5YFVvlDiaM9GUREgjOIowVLmejCqJtZx4Z2jy6cioA1av1ke/L2a6h/2/IXtZ9UnEN0Ubx4NLZvg4X5a8/J0NgG2Zvk/H2zKj2I1JkvpIvad+H5v6T703gjFq19Wp1/TX7dl3j9Wlh//Zo1XEMR3p+1ao7Rqvya/Mtc/6r7i+YtGRwln3QWN2xT+nIirQfKO0I5qi+9MOiqouuqbQ8tfwVznwTmLWq/yhdHjX4uVcwXEZF29Uk8ffs11b9t+YvaT0TEOyv39ult0tS+7VW3VSsLzkkXXTjiXWif0B9JcIaK9k/ORa/RovZtar+m6/vc78/q/QNxzpLjNp1/U/7Strkg6jOcX676WCLtyuT9WaOm/VqVX5O//fWfbzOqttSco/hyG7OfRuibCamm9DrhuQX3shghja99bP+FdAJjDHzvYfJjHx0A8V0I9++T6nHTuxtMv183NvaxgZ1iHP8uhn9uo7t0+XH6DZGHfWMgvptWjOXrkjkEVe3X/Q54d10eQY6v/bwenVc9TO+09LtkfD475+53wPi6GJ+Or13YfwN7v1QdzfRY7bdYff3blr+4/ZK09WJ+BmLcfCwmsza1b2uV9187pbkA6fnb+nPi0sXhqxGGPw4x+r8buFWTZrN5FcfV8w0WufkInIy1b07ehXCPD4CfhlqbLW7fpvarv77P//6M76a4+vAecXo+cdo+G/+XzKtsOv+m/Lm7G0x/0OYRAZ/l/HI19y/vz4fen4m69mtT/uL8S1z/9PpWpJDJ7DVa2HNU26XXIr1W0uPk6N2C+vi6pJFwnqbS/+uf/Cu6TP/QPi3cBuIcZduVOBeReEdaGQ3lp0cRJ6ubvrkFs35mVJ/UpX6f6EKvo9E+6aePPP9cernbVRm9KI0epf3q1da/ofza9tOHM9N7NNtfb+Om9m1l4Se2Fmb6sKs2NJHOtyjON70PtfPJJPfZ8vend+SIpw89HJXnK9S2b6qp/Wqv7zO+P5M2VeKc1Z/fovNvk998fcjOI6/fE55fSd39y/uzKHvZ+1Nq2k+kXfl1+Ruuf/X9tfx1+JZY9/f3YgZMa2tr+PTpE9bW1tItMfzjQ6z/tqhXqCmdPo8Y8fUhtq+3MFniEw29EHc+7P+NMfi9+TdyykK4+++wq38z9Enw/vym8f6kr0jL4Ii+Ctcu7PEJrn7wEP2mdzfTtyA8t/Hu9QSj12ZKjTsf9v92cJX+qX6OlvttsmXw/vym8f6krwmDIyIiIiLNUhOyiYiIiF46BkdEREREGgZHRERERBoGR0REREQaBkdEREREmhWDoxj+sfarpXOa0omIiIiel5WCo/hyG+P/7KK/4Ae9mtLnhXD3LVjpQ/9p+rbC84ct7UFERESElYKjOx/bHwaLf5CrKb1SH6O3Ahk4UP91gNvI3KHRzcce1lsHY0RERERlDwyOYvh/zrD3m7FoYq4pvU4I92/g9Jct9D7eFJuv3aRHKV3MML60k7+P/SLfvoWdf0+wqfU+ZfsnYoTnab59C9axCz01PC96rOJrN1kgcelFZrPeL3ephRWJiIjoeXhQcBRfbmP20+J11JrS64TnB8BPI3TQxQZmRfDyeoToZwXndVJq58dJ0sP0nzfpDn2M3gZwfvAgb6V45GvkxPDPD3Hz+jRPi34CDrTgqf+LIPpZAR+20f0b2PtdEP0MjI3VnGvd3WAKAD9smClERET0FVg+OLrzsX27t3h9nKb0OtcuDpDl7WD9+ylutF6b6BbY+K74O76bovdKG7a7u8H0+/Xib018eYjZ6xGGr4v9O693y71TAKLbK/T+cwr5bYT+qyQIW2po8NUQk7cC4do8REREX6Ulg6N0uGzhisVN6XVi+H+f4OqfzXzYa/OfK8xui3RzPtH7D+VgCbcz4LuutqEQ3U7L+wLA9eFcMHXz0cHWMsEQERERvShLBUdNw2VN6XWSb7ZFpSGx6GeF6V06pHX3HmNspGXHiO98jDHAGy1YKvUk3YXwz+38G2/d74DxdTGEFl+7sP+GEciFmOXHeIgY/vFD5ikRERHRc9E+OGoaLmtKrxGeW+j+dYWrv7p5MOMfF9vcawCv3mCAnbRXaRuHFzPg3x1sa1/377waYDpOJ1v/7wCz16f5kFjnx1MMbg/yXqnt6w2c/lYEcklQs4mTf7NjPOSnBCLM/gXwA78xR0RE9LWy7u/vxdy4traGT58+YW1tLd0Swz8+xLoWTJQ1pRMRERF9HVoGR0RERETfhvbDakRERETfAAZHRERERBoGR0REREQaBkdEREREGgZHRERERBoGR0RERESaFYOjGP6xi3Dhr0E3pdNqnrp9n7p8IiKi52el4ChZ8mMX/QW/Bt2UXhbCTX+ZunjYcK+X+5Xq8Py5L90Rwz+3tfMzku98uMf6+Rvpmur2DYv8xy6KBVPSNLONj/3SHrrq8hvqX3t8NORfrn5ERERP4v7+XsyHiOT/LnTriTryzK2FpvQqM0fURVT8feuJ+kOJd6vvVM87ciQwNz4bkXhHSpxZdo6ROGdaG9164px5UrRAIM6iNqxs30i8I4i6SFogmjmizrTWuPXKf9dZWH5N/ZuO35R/mfoRERE9kQf2HMXw/5xh77ehmZBqSq8W303LG14NcfozMM56j659uMdZr4MF+9xH0a+U9Drs/HuCTb3n4Vzru6jN31bWu+Eun/f6EOP/nGL0Olsc9z2mWC/Sb2eYfvcGaSri6xtMv9fSc9XtG19uY+f7AJMfk0VcOq+30Pt4U+xwOwO+6xZ/L1RdflP9G4/fkL99/YiIiJ6Q2WvUpucoulDizMythab0RYIzzOWrKys4c4xepZqelgrz+Vu49UT9AcGR3sPzALeBOBeBUUbS84I/koc6M9PTvRa0SXBm9LKZvT8zJy87K7/KovJLKurfeHxdRf629SMiInpKy/cc3fnYvt3D6LWZkGpKr6Ww8V15S3SLdJs+VyV5bH7cwFCfD3O3qKcF7fK38WqIyVuB/DbMe3iWFV/78G+7GP3YL5URX7/H+k8R5K1A3gr2XmP+GAvbN8S7jwO80c/ndgb8503+Z3w3hfqvh+h3gbyNMPh4MD8/a2H5her6Nx8/U52/Zf2IiIie2JLBUTrc8ksybDKvKb3ezcce1kvBjo+D9A3XP+5i/N0eojRwkIEDZb7x1gzLtMr/5GL4lz6i74YYZkNLmTsfh3dv0Ne3X5vBQXP7Frlj+H9PMdDK6/w4weSXITqvkj3Xv8+TUk3l19Q/VXf8pvzN9SMiInp6SwVH8eU2Zj+NsPCtsyG9XogZNvK88bUP+88xBr8O0UEMfO9hkvY0xHch3L9P0HtVfoON76bFtrsQ/rkN+zIGWuZvFsM/Tr5ltXSPxp0P9zLC8Mdh8u2vOx+2/k2s2xn0GVfxtZsHhvm22vbtYwPjtF4xwvMudr7fy3vGwsusLVJ3Pt6hSEdT+U31bzh+U/429SMiIvocrPv7ezE3rq2t4dOnT1hbWys23vmwL9YxWdSr0JReK4S7v4kTfdMPDrxfR8Wb47ULe3yCKwD4QUH9e4UrKHi/T7R9fNjjnWQfKDgDbfJvm/yN0nr+4CD4bUEQUani/ADgvwFEa6/w3MbmP2nt/+vh9Bdt6K5N+975sP+XnL/6b4DTX8rDVuXyjfTa8tvVf/Hx2+WvrR8REdFn0jI4iuEfH2J9YUDQlE6reer2feryiYiIvh4tgyMiIiKib8NSc46IiIiIXjoGR0REREQaBkdEREREGgZHRERERBoGR0REREQaBkdEREREmhWDoxj+sYtw4a9FN6V/fvFlsr6afRkjNn+V+Uk8dfnfls9//YiI6FuzUnAUX25j/J/dZDmICk3pVeJrF3a2OOyxC/f4AUt1LHLnY/vDANHvAfBXF90PPez9+HS/wZwsNbL9SPUP4WqL5iYPG+71IwYHd37R9uehmfrlfebrR0RE36aH/wjknQ/7T2Dy29BMSTSlV7l2Yf8N7P06Ktbf+t8Mp29HX+0yEv6xize/PVL9r13Yd7uYZAHBnQ/7f2MMlloCpQXzOERERN+QB/Ycpau3Lwx8mtKrxXdT9H5KAyMAeDXERA+M9J6NfQv2uT83ZBdfaj1P+zbcc7foubn24R4nwzJZ/nK/S4zwvEi3jl0s1X9yF8I9Lo7t3yWL6S5T/zrxnb40bdI+pz8D46z3qEX5te2T7aMv4KtraL/wPN1+GWs9gFrPX0N+NNav4fo0nr+Rf/+Z9pAREdGXdX9/L+ZDRPJ/q0QXSpyZubXQlL7QbSDOkSPeLJLITJNAvLNgbrt3EeT/D86UqAttn7Q8M08mOHPEu83+isQ7S46db5k5os6K8mvdeqKOHAmy8m4DcY6Ulr+5/k2CM8y1a9HWzeW3bZ/gTGntsli5/RLRhRJ1pARpW0QXStSFeYSEmb++fk3Xp/n8zbqYfxMREYmILD+sVrt6e4v0Nu5ihNfvcfBhjMGvyZBRfGmj+1eyYnvJDx7kt2GL48bwz7exk676Dmh50x6Lw1cjjF4XyUAM9/g9Ri16wMJzF/jFWLhVG55qrH8L4bmNm/8rD6Fl295cN5Tf2D4F/9itWIS2vv0y4bmFd99FGM0NyTXkb6hf0/Vp1b53Ptw/Z8D3G9h4vY433/XReczhSCIiehnMXqP6nqNIvCNHFvd1NKUvR++BCs7qy23qrfKOUO6VmDmlXoPK3pLWPUeBOEeeuXGp+rcx17a3nqgjT6IW5Te1TyE5F7M/pan9MnN1zLfX52+qX9P1aTr/OWmv1FJ5iIjom7DUnKP4chuzn8wehUJTep3w3IKrfS07vvax/Rew8V3yd/c74J3xzaz42s/no3Re9TC909LvQvjnNtxrAIiB7z1MfuyjAyC+C+H+fVKaV9P9DhhfF/NP4mxy+IKejLI+NrCTHivp+fLPbXSXqH+zZP5SVpv42of95xiDX4fotCi/vn00dzeYfr9uTCBvbr9EuY6F5vxN9Wu6Pk3nj2sXNucXERFRC+2H1RqGPRrTa8Xwjw8x+36Kk2zY5QcHQfattWyvSxfbf53gakF6eG5jc1H+axf2OMuroP69whUUvPybXuVhH/VfD6e/JIFHK3ch3D83cfIvACg4P59i40MXO/8Wx2iq/2Ih3P1NnOibfnDg/ToqDbE1lV/XPuG5hc1/in0TDoK3abDb0H7+sYWdf8u51c9R8Y23hvxoqF+b61N3/nPnV9F+REREaB8cJcHL/DyUTFP65xIjvj7E9vXWA4M0+rJ4/YiI6MtrGRx9JbLeiR88RL8t0etDzwOvHxERPQMvKzgiIiIiWtFSE7KJiIiIXjoGR0REREQaBkdEREREGgZHRERERBoGR0REREQaBkdEREREGgZHRERERJpWwVHoApaVPGwfQFj8bdnZToBrF9tdv7oM2wdCH7DTvFztioiIiJ6T1j8CGfvANoDJMN0QAvY7YDLKd0EcA530Z41DF3i3BYz0VSBCwNoElAOc7iJZhBRFHiIiIqIvrVXPEQB0hkBvnAQzAOAfAINdbYcYONwueo4OplqaRnlJQNXpAOgwMCIiIqLnpXVwBAC7A+AwTHqAxj1gqAU2bhfY2ANEksfpQM9JRERE9HVYKjjqDAEcVPcaTRXwppv+GQKHYy2diIiI6CuxVHCEtPdox+g1QifpKep2kyG17XfA1gA42QT8dBzOtZL5Rlc72qRtzsYmIiKiZ6b1hGwiIiKib8HSPUdERERELxmDIyIiIiJNq+Ao/8HHJ3oQERERPRetgqPs6/lP9SAiIiJ6LloFR0RERETfCgZHRERERBoGR0REREQaBkdEREREGgZHj+zatXCc/Sz4F/Clj09ERPS14y9kPyOXtotXkxFemwlERET02bTqOfJtC5Zlw/dd2JYFy7Jg2W6+bhqQrDbr2mmaZcF2fZT7L2L4rq2l27Bt/+Hpto/S0myhrx3fhuubC7c1lZ/s41oWLMstl91G6GLfsrBvzffc3Pl2st11cZzus2+7uM52iH0cWxb+ujrBOEu3LJzrlYhDnNtF2rHr405Lrjs+0h6lLO3aT+uh1wExLt2knvuWhWPb19KIiIi+Iff392I+RCT/N+MpiHI8iaJsSySeciTI0h1H8iQRkSgQx/GKPz0lygvyfaLAEaj26Z5S4ukHiAJxlKcdM9LqJhI4ECerXIvy063iAAIU57WsW0/JUamixfY/lCOzNGnmzO93oRyZlbYULhxHbvUNUSBnWvtmFh1fREQCR/6AkiMnkNsoKeM23fVCKbkw2vdMeeVjEhERfQNa9RwlFAa7Q3Q62d8dvBlM8S5Mej7GJyfoZr1KlgWru4mTk1neA9MZ7qE33sz32T4AgtNhXnpteuxj3NvDMD82gE4fW70x3medJPF7HG4Xxz+Yavs2lV/shZEIREboGymP4b97I7xOz+H1Vs9MXiz28eHkBP/TepX2u5v452S2dO/OD94pfhv18aqTtOGrTlp+bw8/Gu37ujfG9XwnFBER0Yu2RHBUo7OOnvIgIsZDDzL6GE3S7VGE0wGwua0PazWl1wnhdsfY2IvyY58OlLHPKuV/YZ11fK88vBUxHpyfRERE9NiWCI6uMD70Eec9CTHej3vY6gNA0otjz83zKfi2DTdMM3c6wDqgeuvt0jtDDKYHc3Oc3k0HeNMBEN9gqnp40026PuLQx+H4Stu5ofzcCnOOHsUUd2kV73wXx5abzitKenGOa9p3JZ0h/jM9wKXRvtfTQd7TRURE9K1YIjhSGGytF0NX9iHWT4ueof7oFHuzg2JYzbZhu6E2KbsHvNvO07sHwN6uPnhVnz6cnAKH2oTq7RtsTYboIHlzPx1M0e2mQ2bvgK2BwsmmrQVU9eUnIuPvtkKcp8Nd/9u5wr873XT4K5nwfOfb+N/OFf7ZTCdZhy72N0/w7063NHn69V4PH7ppOWPgp2iEV1na6BQ/zQ6KYTXbxrEbpsFT/fHz9PSYWRn6hO8f0/bNJ2Rv3+D1ZJgfn4iI6FvR+qv8vm0Dp5PyvB8iIiKiF6ZVz5FvW9i5usJO14I19/V3IiIiopejdc8RERER0beAwdEj2Lcsc9OL8lbmbhEiIqIXi8ERERERkabVnCMiIiKibwWDIyIiIiINgyMiIiIiDYMjIiIiIs0XCo7CZJmO0m8mxQhd7RewXR+hb8N9ohUzXpzQLX7durTOChERES3jUYMj3267JlkfIwngaFtCdxs3u6f5wrGT3Te4MdZHoxr9Ed6K4HfPXHCXiIiIlrFEcBTDt7OeHRtuqPX+xD5sy8LO1Qk2s7XVLKvc6xOHcO0szegRin0cYA/DjrY2SaeD4UQwypY/C/1yfmMR1tBNe5z8GKHvwrYsWGmwFvtJvW033a6l5Ur1S3qu5vtfHr4w7bVb9Opc+y6OLQv7drb2WXL8cztdN82ycOz66bppqdDX0m2cP9UitERERN+6+/t7MR8ikv+b8ZQSL8r+iiRwlEB5xj6OBKUtmUAc5UiwKH/giCoKXyCSSNslcCCOebDAEUCJcoJk3yj9V0QiTwm0OgSOKh3Tcxwp1SAKxHHK5ycSiQMIsOg8GwSO/AElR04gt2n9btODXjiO3Or7RoGclY4f5fuKiMwcyFlFJW49JUeNbUlERESLtOs5in2MMdAWne2gvztA6wGc8B2mg130H5ofAOL3ONwuenYOpuYOCeWdYjLqo9MB0En/TTl7o7wO/a1ekRD7GJ+coKv1elndTZyczIweog5GIhAZIevQWtYP3il+G/XxKq3fq05y/A8nJ/hf2mu0b1nY727in5OZ1rP0HhfbRfrfC86fiIiIVtMuOHpq3Q1g/N7cqgnhdsfY2IvyOUmng6VCq3qddfSUl5ddPB4eBC2ls47vlYe3IsZjhNcAgBDn3TG+24vytF8f8/yJiIgo1y446gwxwBjFl6BihIdjzE+XnuIm3Sf2XdiWm8zb6W+hNz5EuCh/Z4i93hi2/i2rOIRrp3OT4htMVQ9vukm3Txz6OHzUydp9bPXGsBvn8Tx8zlG9Pl73xjhedPz4Bh9VD6/T878LfVw86vkTERFRzpxvtGjOkUgknlICQAAlThCIY8w5igJHFJDsU5pjlM7hUWlalh8ozVuKvHJ+Tysg8rJjQ5TjSeApAbJ5UGlZxiObk6TndYJsblJaVj4/J50HlR8/nbuU10C04yw75yiQM0D+MB7lOUORzBxVpKt0blKaeusVaUeOJzNPyR9QcpGef1X5f8CRmX4IIiIiarTCwrMhXPsGo8nQTCAiIiL6arUbVjMkX5vfxMnVjvFDjkRERERftxV6joiIiIheHgZHn8G+ZZmbPqu3MneJiYiIaAEGR0RERESaB805IiIiInqpGBwRERERaRgcEREREWkYHBERERFpvlBwFCbLcGS/kRS6xYKv2cN2teVG6iW/u2Rry5ssFrpWeZmSSkb9XoLQzRetPW48fyIiom/XowZHvt12zbE+RhLAyf8cIfIUnKBY9DXaAza32wUn/ZHAa7kOa38kmAyTNcoWM+r3EvRHeCuC39s2FBER0TdqieAohm/bac+ODTfUeldiH7ZlYefqBJta74+rR0pxCNfO0tIFZRuo3nrxRym/Bdv1k0VtdZFf7GP2PGm9U5U9R031C7WyLRtu5SKxD1+Y9totenWufRfHloV928V1tkMc4txO9tm3LBy7Pu70AkJfS7dxXlk/IiIiamQuOrto4VlPZYu8SrFIq7HwrKcWLcgaiFNaiHY+v744bLY4bXE8Ec9xyovARoE4TpHfU8kitlG+jmx6zHyPdLOntMVmM831E4mKskUkcIqFbQvRAxemTQWO/IF0wdkoOYfb9JgXjpMvQiuSpJ1p5y8S5fuKiMwcc2HbxK2n5Gju/ImIiCjTruco9jHGAMVoVAf93QFaD9CE7zAd7KLfkF8fVpNoD7PtdB5R7GN8coKuPiepu4mTk5nWQ6PgnQ7RyY7R6WN3MMW7Nh0obeoXv8fhdnH8g6memOlgJAKREfpmUks/eKf4bdTHq05yDq86yfl/ODnB/9Jeo33Lwn53E/+czLSepfe42C7S/66sHxERETVpFxx9CZ0+dgfALALQWUdPeUXglD8eHoQsJ4TbHWNjL8qPfTowQ7sn1FnH98rDWxHjMcJrAECI8+4Y3+1Fedqvn7N+REREL0i74KgzxABj7dtgMcLDMa7KewGY4ibdJ/Zd2JabzAvqb6E3PtTmAC3Kr4lDHO5ke/Sx1RvDrp1Hc4WdbR9xdvzQx/a4h6020VNT/eIbTFUPb7pJ11Ic+jgcV9X+4XOO6vXxujfG8aLzj2/wUfXwOq3fXejjorJ+RERE1Micb7RozpFIJJ7K5gUpcYJAHGPOURQ4orI5Q6U5PNkcoGI+kRMEyfwc5YkEjjHfKHmU5wal84Dy8pUoJ5Aonf8DKPECb8Hx02PNPbS5QXX1M+ZEKceTwFNz86KK4yw75yiQM0D+MB7lOUORzBxVpKt0blKaeusVaUeOJzNPyR9QchEtLv8PODLTD0FERESywsKzIVz7BqPJ0EwgIiIi+mq1G1YzJD+6uImTq52X9UOJRERE9M1boeeIiIiI6OVhcPQM7FuWuemzeitztwAREdE3i8ERERERkeZBc46IiIiIXioGR0REREQaBkdEREREGgZHRERERJovFByFyTIbpd9IiuG7dr6wq+26sFv+hlLyu0vpIrVU69q1cPwFG+pLH5+IiKjJowZHvt12TbE+RhLA0bbE/jZmG6fFwq5bG1pqvf5I4HGd1VZejwS/DZM12JZ1abu4NjcuaZXjExERfQ5LBEcxfDvr2bHhhlrvT+zDtizsXJ1gM+35sSwLrh4pxSFcO0uzy2mpKaJkoVoAnf4Qk9LSJEbPku3PB2KRXxzDdrWFZLPeJQu2HyP0XdjZPtkOpfpZsF0/rUt2nm6a7iIMl8mf72D0jNnlnrFQq7tlw61cZHaFhW1DF/uWhX1rvufmzreT7a6L43SffT0Qin0cWxb+ujrBOEu3LJwb1/fcLtKOXR93WnLd8ZH2KGVp135aj1IwFuPSTeq5b1k4tv2VAzUiIqJK5qKzixae9ZS+yGq6CKyx8KynFi24GohTWgi2Kn+yLVs4VjmeRNqiruXjZwvFepJt8lSySGyeJ0qPqWVJFrhNF6yNkn2y/T3HycsSSfM7af0iT1S6yGzkOcnCspFI4Chx0gPU5k8XrlVeslBukuzMnb9+voGDvOxC9MCFbQu3npKj8mq5+fY/lCOzNGnmzO93oRYvVHvhOPkiuCLJ+Z9p559ZdHyR5Pr8gXRB3fT63Ka7XqhsEd1UFMiZ8srHJCIiegTteo5iH2MMUIyGdNDfHaD1SFb4DtPBLvq1+TvojyaY5MNqM3S3056V2Me4t6cdH0Cnj63eGO/zTggF73SITrZPp4/dwRTvjC4W5Z1iMuon+3XSf2Mf45MTdLVeL6u7iZOTWdFDo5Lz76wDcLbQ7wDdbOSvRf7OcA+98Wa+z/YBEJxqPWPxexxuF/kPpkVSoYORCERG6JtJj+C/eyO8Ttvv9VbPTF4s9vHh5AT/03qV9rub+OdktnTvzg/eKX4b9fEqvT6v0uvzobeHH43r/7o3xvV8JxQREdFK2gVHX0CnvwXnSgtOnlJnHT3l5fOdikfLIKRV/j5Gk3R7FOF0AGxmwR9CuN0xNvaiYs7VoHXo+eV11vG98vBWxHiM8Nrcl4iI6JlrFxx1hhhgrH0bLEZ4OMZVeS8AU9yk+8S+C9tyk3k3/S30xofaHCAzfwjXsuHrk4TiG0ydrSS46AwxmB6Uv40Wh3g3HeBN3ptwhZ1tH3F2/NDH9riHrVbRTdILZVfO82mjOb9v23Cz8+t0gHVA9daTv+MbTFUPb7rJycShj8PxfOuuNOfoUUxxl57Cne/i2HLTeUVJL85xzfmvpDPEf6YHuDSu//V0kPd0ERERPRpzvtGiOUcikXhKCQABlDhBMuentEfg5HOGUJpjlM0BStOy/EjmCYkE4kCJ42Tlp/m17CKReFq6Ul6eHjhJmV7gLTh+eizjUZ7Tk86DyvOnc5P0vE6QzluCKC+SyEv2T8pZlD/hKWf+/LT2ycpCOt8q8FRyTqXpOVldzLZpEsgZIH/MPZI5RLeeyredBdncn+RvfX7QbeDIUZZXm5+UiGTmFOX8odK5QyKNx1+UfmZcnwut/CPlLZz/REREtIoVFp4N4do3GJW+UUZERET0dWs3rGZIvha/iZOrHeOHHImIiIi+biv0HBERERG9PAyOvgH7lmVuelHeytwtTERE9GAMjoiIiIg0D5pzRERERPRSMTgiIiIi0jA4IiIiItIwOCIiIiLSLB0chS6wyk8bfen8RERERHX4bTUiIiIiTfueoxCwrORh9tzEfrrdBex0H8tGeXHUmvyZ0C32sWzAtVEsNtsiv6/lt83jExEREbXQPjjqAyJA5JkJQGeYbL+aAntRsl/QAw70IKYmP9LA6N1Wso8IIKcA9IXpG/L7NoDdIv/kFHhnA/pC7kRERERN2gdHLTh7QL+T/L+/ZabWezcFRn1tQwcYCTBMy6sVA+OesW8H2OoB7xkdERER0RIeNThaFeMYIiIi+tKeTXC01QO2tWG4OE7mHLltJg51gMFUm5+EJNJ6NwXetOl5IiIiIkq1/raaawEnpb0SgQBdH+juJH87ATACYG0mfysPmAzr82ejab4L7GQ7KcDbA4Zp4rL5lQL2JkUaERERURutgyMiIiKib8GzGVYjIiIieg4YHBERERFpWgVH+Q8zfqUPIiIiorZaBUf5DzN+pQ8iIiKitloFR0RERETfCgZHRERERBoGR0REREQaBkdEREREmhWDoxj+sYvwztyeaUr//OJLG9a+BfsyRnxpw7586hXdnrr85+5bP38iIvrarBQcxZfbGP9nF/1XZkqiKb1KfO3C3rdg7Vuwjl24xzb8xwqu7nxsfxgg+j0A/uqi+6GHvR+fbvE1/9iCtb/9ePUHEF/7cI/T9tm34V66sM/bLED3+T3F+RMRET21hwdHaaAxWRRcNKVXuXax/Tew97tA3grk1w1M/+3hzRLBVa1XQ0x+G6Lzqo/JW4H8NnrStdeGvwm8Hx6x/tcutv+eYevXKGmft6fYup2i9/opz+LhHv38iYiIPoMHBkcx/D9n2PttaCakmtKrxXdT9H4aFT1Nr4aYvB0hD6/u/KJXad+Cfe7PDdnFl1rP074N99wtei6ufbjHybBalr886BMjPC/SrWMXS/XJ3IWlXh3/LsQMG0vVf7EQ7t/A3m8j9F9lJXbQ/2WC0etsnwX1v3aT42Xnfl70PrnX+QEa2ieEu2/BPi/37JXap+n8F9VvUfq+BeuZ9ooREdELdn9/L+ZDRPJ/q0QXSpyZubXQlL7QbSDOkSPeLJLITJNAvLNgbrt3EeT/D86UqAttn7Q8M08mOHPEu83+isQ7S46db5k5os6K8mvdeqKOHAmy8m4DcY6Ulr+5/rVmjqgLM7euvv7RhRKcBSISiPMHkuvTUGa5fdIyjjyJ0m3BmXadG8+/vn6Slq/Xx/ybiIjoc1g+OLr16gOGpvQ2biMJLjxRRyp/c44ulOAPzD+OvDRP03Ej8c6MMrK8IhJdOBUBXSSOtk+d4MyRuaNrwUdj/RtEF0VbVGmqf3CW5Q/EOfIkSsss8tS3T1JG+RyjiyJ4MtNEzPOvr59Icg2dI0ecM0+8WZAHYURERJ/TksNq6XDZL4vmuDSlt/Sqg/6PQ5z+B5jdJpui2x6Ct+lcJP2RDt3F1+PauTf+cRfj7/YQZfkGDtR/3uTp0e0UG9+VsgDXh5h+v25srBLi3ceNuflL8d0UvXQIrKn+TaLbq7wtqjTV/+ZjD+uvANzdYPr9OjoAolvkeZraBwBusIGu9nd0O03/1+b86+sHJMOoo99GGP0yxPA74PBPc9iNiIjo6S0VHMWX25j9tHgSc1N6nfDcgqt9rT6+9rH9V/Hm3f0OeHdtzBC69vP5RJ1XPUzvtPS7EP65nc6piYHvPUx+7KMDIL4L4f59kr9xIy1/fF28FcfXLuy/0TLQ62MDO8X8nbsY/rmN7hL1b9J/7eBkrP0sQnqM7KcI6uufzP3pA8DtDPguCXFuPuZ7N7ZPUkYSVGV5bj5mk63bnf/i+iXzop7rt+6IiOgbYw6pLRxWaxq2akqvFYl35IijD+vo81eyvS4cUTXpQV3+mZ5Xpf/Xh6rKw0rqLBl6au02EOcoG5JS4lxE4h2Vj9FU/ybl/Ko0f2dx/ZM5RvgDgrMgH95zZlG6PZ2TVdc+t16Rll7j5NxQzAlqPP9F9UsEZ1neon3qhhGJiIieinV/fz+3bv3a2ho+ffqEtbW1dEsM//gQ6wu/+t6U/rnEiK8PsX29hUmrHh8iIiKispbB0Vfi2oU9PsHVDx6i34baEBARERFROy8rOCIiIiJa0VITsomIiIheOgZHRERERBoGR0REREQaBkdEREREGgZHRERERBoGRwv4tg1f/0Hr0AUsC3BDwLeT/+s7uFayTX+4T/CLz65xXHqGwuT6276Z8PVrdf+tev6r5n8CTc//2Idt+2hqGSL6OjA4qhK62OntYaj/UFJ3I/l3owus95L/r2s7jAQQATwFeFHy/9ET/BDlSFCuGD0/fUACc+PL0Or+W/X8V83/BJqe/50h9no7OHyCz0NE9Pm1D47ia7j2PiwredjupfEp6Q6+e6ylH8O2L0vpoZZu2Zdw7eP8w1fopvn8O4T+OWxrH5Z9Xiw8WnP8LG+WH+F56TjJTpda/mO4frYQ2Dz/4ATO1oLAJn9BVCitwlon+6Tppp8+LQuwXWOnGHDT/Swr+b/+yTn75Gp+Ys1kPVd+DPjpvvoxQh+ws14tG/CXfRU36rfMp/qm88/Ssyrp55L3Irhp/d2iLfQy4lA7Pwtwjfo1tc8q5wfz+HZxLpXpFfVrVFE/20bxJKxIzzS1v97r6cfley0rp+n+azr/pvuvKX/d+VWlm8+fbB/LSu6hh6p5/vd3PUwP2HtE9CKY66otWlvNc87Ka41FM3Gci+JP70iUN8v3iYIzgSrSA+dIHH0xsWgmDo7EKy+wJcCRKGcmUZTsE6Xp7Y6vlR+ciXJmxd9ym5clIhI4f4hTuRRcIA4cmU8KRKBEIhGJPBE45g4JT0n5pLTtyknyi4g4xn6eEvG0owaOiPKKvzOLypc0D5SIE6T1TP8VEZFI+7+IOJCKk1xMpeeeiYLq+i3S5vz1+gROkR55Rdt7TtL2UVpGlscxrkcUiDhG/eraZ6XzC8rnJlFSNz1/m/rVcZRIoFUw0u5HaVH/Nu2v/x04STuZzP1E2p1/7f3XIn+b82t8/kSS9O8ueO7WavP8D8SBmm8eIvrqtAuOogtR+EMw9zjT3s9m4qgiTakz7bV8Jo4WKC0UnJUDnEyr49+Ko4oAylNG4BVdGPVbEBxFniiki7E+ROWbR8Obf7JBRCF98YbxZqFZVL5UlamJPKP8JYKjyKt+o3SMN6w6Tedflx55xRud/qad5Ym84rxKD+MNzDxmZtXzqypXr3Pb+i3UEKi1qX9d+4okgYPS6mMGI5mq+2+uLOP8878X3H9N+ducX9vnzxPzFCqrSkRfl3bDap1X6KmfIfLWePyiLTT7GqNJuj36HacDYHNbH1bTRgCW1er4r7A7+JiM+YfnGPd+0qZGXMPtfsDG3u953tPBD3nO56EPTNKX9igCBgC2zWGBhwqB7hjYS+dCiQADZe709eqsA8qbCz0gI3PPL+O51w8A0AEG02Q4K3SB3h4eb3HCz3H/PeXzh4i+Ne2CI7zGVu8D7Lp5OvYx3PAu+aPzClgHVO9VmvoaW72/sO2n6QDidA5Ruy90NR8fADrDn4CDS/gHHzHYfV0kxHeYqu/xppvUJw4vcTj+t0jXddbRAxCZ25+abQNhGj52OsA6gN66udfDxDeA6gHd9N0u9IHxlbnXYp0hMD0oR7dxCEwHj/gGCuAmm4DmA5snZmqNPtAbz89jaWvV8+tvAePD8vyfw7G+w2r1Qx/o7Rjfjkrn6ISPUP/McA848IGDKbC7YM5dlabzb7r/mvK3Ob9Wz59HmHNUK8TsSmGj7VxEInq+zCG1ymE1ERG5lcA5Koa0VDo3KE311Jk4pXR9WC3J7xn5vXwO0kycuSEzc9ir/viZyDsSlOYaaduzITXnQgLvSGDOeUo9qGvcme8XKA3/ZNuCdBgh+zurgHKSYYJse2lYIJgvG9CGZRak6+eg18Hx0r8XDJ1USueB5PWrGeYxtTn/SBsWUU46twginjYk5QRFXi8qyg2kon7p3CKRdu0zl3+J8xOj/lAiQXrMvByzfL1+bVTkLz3BzHRjPo5+zlXtr+87V68F7acPCzadf9P915S/7vyk6fmTyc6j7XDmkiJPlPLmD0tEXx3r/v5ezIBpbW0Nnz59wtrampn0bQhdWO+2IE/xVXwiepFC18K7LXmSX/Agos+r5bDaN6Y/gjc9qPzGMhHRnNjHwdRbajSSiJ4v9hwRERERadhzRERERKRhcERERESkYXBEREREpGFwRERERKRhcERERESkYXBEREREpGkfHIXnsKx9WNY+bG0ZkGWF7mr5M75tf1u/QxT7sG3/4evTERERUStL/85R7B9jG79iMszWTfsCvtFfsOYv8BIRET299j1HTdKFZPPeJfey3MvR1PMUXmr5j+HWLDLrH5zA2SoiBN+2YFk2fN+FbVmwLAuW7ZZ7luIQrp2mWRZs1+yFieG7tpZuw7b1Vb2XTLd9lJYZDX3t+DbcuUVIm8oH+rsepgdmvYmIiOgxPVpw5B9eY3fyFiLJY7L7CofuZbFD/xeIvEXk/aBnK/RfY/c0y/8btmZjuGb8AKQrXzvQYiMMJwJPXWE828BpJBARyGQX2HbzAMU/fIfdSZomgsnuOg7dIviI/W2MN/YQpemnWz3o69Y3pfv2NrA7Kco/Xcc7fRis/wa7p9nxJ9iabZbOr6l8AEBnHb2rMd4zOiIiInoyjxMcxZcYn/yDbtozZFn7sLpjnJzclntP6sTXONwu8h9MzR1S8Q2mALrmdigMdofodLK/O3gzmOJdmMzXGZ+coJv1KlkWrO4mTk5mef06wz30xpv5PtsHQHA6zEuvTY99jHt7GObHBtDpY6unBTLxexxuF8c3z6+2/FwfG+oKs8jYTERERI/mcYKjziv01M95r1Hx+AXtpsdcw+1+wMbe73ne08GCHqaH6Kyjp7y8V6d4jLT69THKepaiCKcDYHNbH9ZqSq8Twu2OsbEX5cc+HShjn1XKJyIiosfyOMERXmOr9wF2zTyhWvEdpup7vOkmk7zj8BKH43/NvRKddfQAzHeeXGF86CPOh5xivB/30uG3pBfHnpvnU/BtG26YZu50gHVA9dbbpXeGGEwP5uY4vZsO8KaT9napHt50k66lOPRxOC4PmtWWnwsxu1LYmO82IyIiokfSMji6hpsOd3V3/sXVzv/S4a/zfFiqP/oVe7O/i2E1+xi2e53OuWnI3/kRp4OP6HaTfbbfAVuDH3CyeVzxdf0+NtRJMlxWojDYWi+GruxDrJ8WPUP90Sn2ZgfFsJptw3ZDbXJzD3i3nad3D4C9Xb3fqz59ODkFDrUJ1ds32JoM0UESPJ0Opuh20yGzd8DWQOFkU/85gvrygSzISgMuIiIiehJLf5X/Waj4Kr9v28DppDzv54XhV/mJiIieXsueo2emP4KnDWP5toWdqyvsdC1YxtffX4zYx8HUg9mZRERERI/r6+w5IiIiInoiX2fPEREREdETYXBEREREpGFwRERERKRhcERERESkYXBEREREpGFwRERERKRhcERERESkYXBEREREpGFwRERERKRhcERERESkYXBEREREpGFwRERERKRhcERERESkYXBEREREpGFwRERERKRhcERERESkYXBEREREpGFwRERERKRhcERERESkYXBEREREpGFwRERERKRhcERERESkYXBEREREpHm2wZFv2/Bjcys9WOwDlqU9XHMPwHcB2wIsG3ONH/uwbR+8JERE9NI9z+AodLHT28OwYyZQJvRd2LaP0Eyo4wSASPoYldNCF8AuMBFAJsD6IUqFd4bY6+3gcKkDPi7fPl/ufImIiB5gieDoDr57DMvah2Xtw3aPYduXRXJ8DddO0pL0ywf3MvgHJ3C2+sXftgXLsuH7LmzLgmVZsGy33LkRh3DtNM2yYLtmL0cM37W1dBu27T883QxMQl87vg3XN9/Gm8pvJw59uLaLm/VdTCZDFK20ondT4I0WjXY3gHflc+jvepgemO3aUs39EfvJfWW757DTdEsPhOJL2NY+dq7+wWaWbu3D1asXXmrlH8P1r7VEzN+/9iUDLSIiqnZ/fy/mQ0TyfzORdyTKm0mU/R2cCdRFnu45Z3lassNMHKdIby8QB44ExlZPQZTjSZQfJBJPFft5jmMcPxDH8Yo/PSXKC7T6OwLVPt1TSjz9AFEgjvK0Y0Za3UQCB+JoJ9FUfqMoEs9R4nhmy7QUeXmfkQAiypFSgzmq/HfkiczVLxAHRju01HR/RN6RQJ1JkO4UOEeivNtifxHx1NncfVG4Ndr/j1L7e+rIuH4zcdRFuU5EREQi0rrnqDP8Cb3xGN30k/f2ARCc/pgkxpcYn/yTp1nWPqzuGCcnt8t/Oo9vMAXQNbdDYbA7RCfv3OjgzWCadG7EPsYnJ+hmvUqWBau7iZOTWX78znAPvfFmvk9S/2Feem167GNsDvN1+tjqjfE+7/54j8Pt4vgHU23fpvKbxD7s7jawO8Fo+MC+os5QD42A0w0sP0bWx4a6wiwytzdoeX84e7+gn7Zxf+t7LaWF+BqH20X5pfaPLzHu/WRcv9fY6n0orh8REVGqdXAEvMZo8hYibyHR7zgdAJvb6bBa5xV66uckrfT45fGGfep01tFTHkTEeIy04/cxmqTboyitvz6s1ZReJ4TbHWNjL8qPfTpQxj4rlN8ZYhKdAodVw3UP1FkHpjfahivADHp668aGB3ry++MabvcDNvZ+z8s+Hfxg7kRERNRK6+DIt4/hhnfJH51XwDqgeq/S1ORTuD03z+MBOuvoYf59GrjC+NBHnH/Sj/F+3EMyNSnpxbFrAgfftuGGaeZOJ61/8eZfm94ZYjA9mJvj9G46SKbpxDeYqh7edJOuiTj0cTi+0nZuKL+NTgfD0QS76zdwbRd+VlZbtg3o7eMflIOfXQ+40co8HCNtXE2I2ZXCxny3XoPHuj8+5lWM/XPY1nkybym+w1R9jzfd5H6Mw0scjv8tsnV+xGD6t3H9rvFu+p/SNCsiIiJgiTlHnjoTxzkS4I/koc0PSdxKUEo/EuUUc5SW4anyfJ1kmxIvCMRREAAC5RjHjyRwVJIGCJQS5RRzfDzliFNKL+dvShdJ5vxk6Up5pfkvkaelOZ4EnhJo83Oay19O4DnJHCwzYaEomVeUDaxp87FynlOkV00sijxRpXlWy1h8f0Resd0JRCQ4y//W5x1FwZmoBfefXoZyLiTwjgTQ5xndiqcdX6mLmvlLRET0LbPu7+/FDJjW1tbw6dMnrK2tmUmfR+jCercFGenfWLOB0wm/3v8Fha6Fd1sC7bIQERG9OK2H1T6r/gieNozl2xZ2rq6w07VgPeDr7/QIYh8HUw+7DIyIiOiFe549R0RERERfyPPsOSIiIiL6QhgcEREREWkYHBERERFpGBwRERERaRgcEREREWkYHBERERFpGBwt4Nt2ebmJ0AUsC3BDwLeT/5fXowDcdLtlAe4z/T0m16x3lTA5hwf/ptSq+Zs8dflf0Iu4PjVand8T0p+jlo25lbFXrd+q+Z+am76GmZpe32Iftu0ny/UQfQMYHFUJXez09sq/xt3dSP7d6ALrveT/69oO7jawsVeser81Ayy3SP8c7BbHGwmaf2a8D0hgblzCqvmbPHX5X9CLuD41Wp3fE4l9YNornqMywdzKx6vWb9X8ddo8v5tsmAtip5pe3zpD7PV2cFgRVxG9RO2Do/garr0Py0oetntpfIq4g+8ea+nHsO3LUnqopVv2JVz7OP9wErppPv8OoX8O29qHZZ8XH+xqjp/lzfIjPC8dJ9npUst/DLdmEVT/4ATO3KKrqfwFQwHZAqyxD2APGGp5+iPAmyafvrJPYtnJuOknV/2TWegDtvaJtrRIbJrfTT/dWVb5hTL2k21XJ9qnYu140D4ZmsfNxGH5+OaLYF390CJ/Kf0BPWtPXb7Z82f7yWK9eVNVpGeark92va207fVrkZXzpa9P3flVpbt2xT416s6vqf2A+uO3eX65FtDdKT9H9PrX1Q+YP755fzTlr7s/m86/zfO7rnxT3crRVa9vqf6uh+kBe4/oG2EuOrtw4VnnrLzgaDQTx7ko/vSORHnFQrNRcCZQRXrgHIkTFIuISjQTp7QwaLbgaLogaZTsE2ULt7Y6vlZ+cCbKmRV/y21elohI4KSLnM4JxIFTsShpIAIl6UqpInC0JKd6oVZ9u6ekVOhcnigpO+OgvL+nRJRT7OOo+WMqrU6LeBX5JCiXnS1Sq/TFaevq1yK/Y9QtCqoXv6301OWn7VlayVa73iIiSvt/lq4fv+n6mO0eOFJ5A5r7ibQ7/1WvT5vz87T6Bo5x/JYqz69t+9Ucv/H5lT5vm+q8qH5N90dmYf6G+7Pp/KXh+d1UfmZR/epe37R9HG0xbaKXrF3PUXyJ8ck/6Ga9MdY+rO4YJye3+YeXzvAn9MbjfJ/tAyA4/TFNvca76X8w6r8qyuy8xkh+m+uBVt6vmIxeo9NJ9ul02h7/V/TGF/mnGv/gIwa7r4uC42scbhf5D6ZFUkl8gynmPjSlQxEToJN0MUNGRdLNosKWEL8HtrVPflVF7o2S4wPAVtr1/RjCd8BgtygbHWB3UN6nrn5N+WMfODE+9XY3gZNZsU+dpy4fITAdAH19GEG73rEP9Pa046fpvbHWs9RwfYanwPiw+PtgitYL1TWdPx7h+jSd33APGG8W5R8AOB1qGR5Bbft9huMv1HB/NGl7f9adf5225deqeX3T9tlQV5hF5nail6ddcNR5hZ76GSJvjccv2pD9a4wm6fbod5wOgM1tfVit/D6ylFbHf4XdwcdkTDw8x7j3kxZ4XcPtfsDG3u953tPBD3nOlb0ZoPIV4920PG6/UAh0x8BeVMyHGCyYG/BFrFi/zjqgPG2uR/aoegF+gKcu/1F0gME0GQoJ3flgZCUrXp9W+sAkLTuKgAGA7Zqhm0f3pY+/gqe+P5cpfzh5ujlRRC9Iu+AIr7HV+wC7bp6OfQw3vEv+6LwC1gHVy3qKXmOr9xe2/TQdQJzOIar64sS85uMDSe8VDi4reo3uMFXf4003qU8cXuJw/G+RruusowegItRZrDMEcDA/T2g6KE/4vMkmWPnA5kmxPb4BVA/opi9aoQ+Mr4r01qZFBOq77SeE97eSXg19fs3huEhvql9TfqS9EOY8mLaeunz0gd6O8e2cdA5HmF7f6UE5uo/T3oRl3meGe8CBv1yvEVqc/6rXp8352TYQpjt0OsA6gN66luGJtTn+oufXyhruj0ar3p+ZRc/vxyq/SYjZlaqdskT0YpjzjRbNORK5lcA5EuCP5KHSuUFpqqfOxCmln5WG6EVuxTPye/kcpJk42XbtUZ6SUX/8TOQdCUpzjbTtaV7lXEjgHQnMOU8pT6FyOki9dB5H9rnNHO+PAhGVpilHxHOS/+tzkvS8nirmAOhpQTqfIvvbnMeSbS/NMQnmPlMmD21egV4/KJEgzZPN0airX5v8ZvsoVT3nZpGnLr8qf+kGNtON+SLZ9rrrk+07V6/neH2M+1c5Rrp+fzVpOL827dd0/KbnV37u2iO/Dg31Sw5Qc388MH92/DbnL3XPb6kvX6cqrm1bkSdKee0vO9FXzLq/vxczYFpbW8OnT5+wtrZmJn0bQhfWuy3IaIlP90h7i3b0Hh8FBKfluQpERF+h0LXwbkuw7Msi0deIwdECvm0DpxMOzxMRxT7sbeB0MlxqJJnoa8XgiIiIiEjTckI2ERER0beBwRERERGRhsERERERkYbBEREREZGGwRERERGRhsERERERkYbBEREREZGGwRERERGRZong6A6+ewzL2odl7cN2j2Hbl0VyupBskX6Zr5EY+0k+2z2HnaZb9nl5zcbwUst/DHdukVnj+PZluzUfiYiIiJbQOjiK/T8x3vgJkbyFyFucbn0PfRUx//Aau5MkTeQtJruvcOgmwVNn+Bsi7wdcTYG9KEkPeh9x4N8VBfRfY/c0y/8btmZjuKVF7v8Edn8ryj99hXd2EYARERERPYbWwVFn+BN64zG6ac/N9gEQnP6YJMaXGJ/8k6dZ1j6s7hgnJ7el3h1n75d8Ddb+1vdaStLzdLhd5D+Y6mmXGPd+Kq9z1nmNrd4HvGd0RERERI+odXAEvMYo6xmKfsfpANjcTofVOq/QUz/nvTrF4xe0W8D5Gm73Azb2fs/zng5+MHciIiIienKtgyPfPoYbpsNgnVfAOqB6r9LUpBfHnpsn1FJ8h6n6Hm+6SXlxeInD8b9FeudHDKZ/w9d7ieJrvJv+B2+4RDQRERE9Iuv+/l7MjWtra/j06RPW1tbybb59jlnvI05O0qBF/RfBaTFMBtwhdP/EZp7+A1TvJ5yOXgP+Mbo7yXYneIsRzmFt/pPs5v2OyfAVYm0f5fyMvY0P2NwBvOi3dDjtDr77J3bS8pX6GXuTH1v2TBERERG10zo4IiIiIvoWtB5WIyIiIvoWMDgiIiIi0jA4IiIiItIwOCIiIiLSMDgiIiIi0jA4IiIiItIwOCIiIiLSMDgiIiIi0jA4IiIiItIwOCIiIiLSMDgiIiIi0jA4IiIiItIwOCIiIiLSMDgiIiIi0jA4IiIiItIwOCIiIiLSMDgiIiIi0jA4IiIiItIwOCIiIiLSMDgiIiIi0jA4IiIiItIwOCIiIiLSMDgiIiIi0jA4IiIiItIwOCIiIiLSfKHgKIRrWbBsX9sWI3RtWJYFy7Jguz5C34Ybart863wXsC3AsgE/NlMbxEl+y0oert727cW8JkRE9MI9anDk2y7avW/2MZIAjrYldLdxs3sKEYGIYLL7BjfjK22Pr0vou7Btv2V7tBC6AHaBiQAyAdYPsVTh/jaALUAkeWyMlwqw4tCHH2b7x8bfREREL8cSwVEM3856dmy4odb7E/uwLQs7VyfYTHt+LMsq9zDEIVw7SzN6H2IfB9jDsNMptnU6GE4Eo376d+iX8/vlyCB00x4nP04CE8uClQZrsZ/U23bT7VparlS/pOfqIW/9cejDtV3crO9iMhkiq/7K3k2BN1r7dDeAd0tER8MJMHx4bTr9Id50IxyOr3By8B5Rd4hhX6tPDd9OrpmfXZe0/UuxWWP7x/BLPYs2bKPncal0M3BtuL/m8s+VT0REL8b9/b2YDxHJ/814SokXZX9FEjhKoDxjH0eC0pZMII5yJFiUP3BEFYUvEEmk7RI4EMc8WOAIoEQ5QbJvlP4rIpGnBFodAkeVjuk5jpRqEAXiOOXzqxVF4jlKHM+s1CNxlJQqGHkiRvs3i0RU2nc013jNkjb0jHuhHU9BlONp1zAq3S9N7R95SpQX5PtEgVO6/5rS5+ocBeIoTztm/f3VVD4REb0c7XqOYh9jDDDMOwo66O8OoMp7LRa+w3Swi6KjYcn8ABC/x+F20bNwMDV3SCjvFJNRH50OgE76b8rZG+V16G/1ioTYx/jkBN2sV8OyYHU3cXIyazdyFfuwu9vA7gSjyt6ZtJdt7tF2GPKxdJJhuSgCcLDUsBoARBggmAwxPN3D7P2yNVcY7A6169HBm8E06fxq0f6d4R564818n+0DIDgd5qXXpsc+xr097f5N7o2t3hjv85HC+vurtnwiInpR2gVHT627AYzfm1s1IdzuGBt7UT4n6XSwVGhVr7OOnvLysovHqN2wWGeISXQKHFYNxyCdY2WWvUT5AIArIDI29daNDS11OsDuoKHN5/WH6TBhp78gCHygVu3fx2iSbo8inA6AzW19WKspvU6b+2uV8omI6GvSLjjqDDHAWOtoiBEejjE/XXqKm3Sf2HdhW24yb6S/hd74EMX8XSN/Z4i93hi23pMRh3DtdG5SfIOp6uFNN/noH4c+Dh91snbSi2BXBjYtdToYjibYXb+Ba7uPP1l510PeuABwOAa2zAAlTr+N5hrbAdg2igsQA4c7Dw+uHuQK40MfsXYPvB/30lNobn/ftuFm9e90gHVAafWvTe8MMZgezM1xejcdJNO4WtxfteUTEdHLYs43WjTnKJkjogSAAEqcIJmzUdojcEQByT6lOUbZHI80LcsPGPNGyvk9rYDIy46dzF0JPCVANo8kLct4ZHNG9LxOkM1NSsvKJ6Kk86Dy46dzl/IaLCfwnGSOjZmwCs/Jvmsm1ZN+gjTdMRNEoiiZt5Tlf8Cco1V4SokXaPeAeX80tL+nHHFK6eX8TekiyZyw/LorrzQ/rv7+alM+ERG9FNb9/b2YAdPa2ho+ffqEtbU1M0kTwrVvMJpw3gU1820bOJ2U5/0QERE9Q+2G1QzJ1+Y3cXK1Y/yQI9E837awc3WFna75w59ERETPzwo9R0REREQvz4N6joiIiIheKgZHRERERBoGR0REREQaBkdEREREGgZHRERERBoGR0RERESaLxQcpQuxln7zJkbo2vnCn7brI/TT5UPokbH9m/i2vey6vEt4ue0fr1Jn3wVsC7DspRdFBpryx4Brp8vrWJirZOzDtv1kuSMi+uY9anDk221Xme9jJAEcbUvobuNm9zRf+HOy+wY3j7p+2ucV+i5s22/ZHo+D7Q8gdMtr9D1E6GKnt7f0r3l/y+0fh762nmBs/N1C6ALYBSYCyARYP0TLxkw05fe3gY3TbPEcYOOgnN4ZYq+3g8NljklEL5e5rtpSa6shXRst8oo10bRHafmuqrXVsnXVIk9U01pfgVfO75X3D5x0XSwvStY1y9a/0tbNUo6x9pteQKl+yfpaD1k6Kwo8cYx14R4H27+VwNHWy3sYTxltJ8L2byHKylDe8uvOOUpKB4y85db/a8rvKSmdsKfm1yeMPFFq+fMmopendXDkqWIRznyRUGPhWc98wc0F4pQW6jTyt3pDiyTSdgmcijewwBEgXbA0Sl7wszyRp0qLhQaOKh3Tc5zyi2IUiOOUz69WlCxsar5pPRa2f0utzqVOIA7m25Ht3yw5hme0VUtVwY3RvrUa8wciSokoiChHpPLcAnG0xYaJ6NvVblgt9jHGQBtm6KC/O4Aq77VY+A7TwS76D80PAPF7HG4n8zEsy8LB1NwhobxTTEZ9dDoAOum/KWdvlNehv9UrEmIf45MTdNOyLcuC1d3EycmsXc9+7MPubgO7E4yGfTO1mGMy92g5DMP2rxf7sLN8mye42unm5ZhTSxrFN5gC6Ja2sf3biDBAMBlieLqH2ftlcn4G8Q2wN0mG3SYjYGOG+QlGfWyoK8wiczsRfWvaBUdPrbsBjN+bWzUh3O4YG3tRPifjdLDUW0u9zjp6ysvLLh4jVIU6czpDTKJT4NCG61e9KfQxmit7ifKf2kto/yxP4EB5RT1HrQr4wr729k/1h8Nk/05/wYeEOleAGZT01o0NdRryH47LEe86gPdz0REREdA6OOoMMcBY+wJIjPBwjPnpolPcpPvEvgvbcpMPZ/0t9MaHKOZnGvk7Q+z1xuWJtHEI106/+RLfYKp6eNNNPvbGoY/DR52s2sdWbwy7MrBpqdPBcDTB7voNXNtdbjJqE7b/59NZRw/G+yzb/+ntesgbD2kws2UGWHH6bTPX2N4i/waASEu/qep6CzG7UtgodRsS0TfJnG+0aM5R5YRUY05AFBgTPktzACompGYTWrNdsomkaX59UnM2qTSbLBp4SpDPD0jLMh7ZnAw9rxNkczOKCazpXsk8kPz46dyNvAbLCTznQZNaF2P7t9Jq/k691hOy2f6Py3Oy75LNT5YWSeYNASJwzIREbf4omZeUpc9fYE7IJqKcdX9/L2bAtLa2hk+fPmFtbc1M0oRw7RuMJkMzgT4Ltv+TCV1Y77YgtWNybP+XJnQtvNv6SoZiiehJtRtWM4SuBcvaxMnVjvFDdvQ5sP2fWH8Eb3ow/zuCKbb/CxT7OJh62GVgREQAVug5IiIiInp5HtRzRERERPRSMTgiIiIi0jA4IiIiItIwOCIiIiLSMDgiIiIi0jA4IiIiItIwOCIiIiLSMDgiIiIi0jA4IiIiItIwOCIiIiLSMDgiIiIi0jA4IiIiItIwOCIiIiLSMDgiIiIi0jA4IiIiItIwOCIiIiLSMDgiIiIi0jA4IiIiItIwOCIiIiLSMDgiIiIi0jA4IiIiItIwOCIiIiLSMDgiIiIi0nyh4CiEa1mwbD/904VlWeWH7SKMzXzVQteCZdnwW+wfuhbsxh2N+n0N4hDwXcC20KohTLEPWJb2cM09Wol9G25obiUiIvp6PGpw5Nsu2r0v9jGSAE7+5wiRp+AEApHkEe0Bm9vtgpP+SOApc2u1/kgwGXbMzQajfk8g9F3Ytt+yvVro9IHhCNhbodZOAIikj5GZWisOffh5NBsbfxMREX09lgiOYvi2nfbs2HBDrXcl9mFbFnauTrCp9f6UehDiEK6dpbXrXVC99eKPUn4Ltutj7q038ot9zJ4nrXeqsueoqX6hVrZlw/XNHdqJQx+u7eJmfReTyRB9c4evVKc/xJtuhMPxFU4O3iPqDjHsNwWhCd9Oe/58F7bWc1i6TI3XP4bvZvenBdu1YZd6/pZMNwPXxuvfVD4REX017u/vxXyISP5vxlNKvCj7K5LAUQLlGfs4EpS2ZAJxlCNBTf7IUwJAe+jHE/EcR7Q/RaJAHKfI7ykIlCdRtlOUHjPfI93sKVF6wSKt6icSFWWLSOBAHLPwOlEknqPE8ZbJ9ACBI6WGayvy8j4jAUSUI+UGbxZ5SZuV75V2PAVRjnb9JCrdT03XP7muQb5PFDhz91dd+lydo0Ac5WnHrL/+TeUTEdHXo11wFHmizBf6im0Lg6PAmQ9IjPyRp8rBRhSIk71hRZ6oUuCUPbQ3T/PNrarM/E3M2LFF/STyxFHFsZVaIjiKPFFGsFcWiDN3buXza+2hwZEp8qT9CSYCz0vqGwVLB4G116/F9U8CXP366MFuQ3rkiao418DR6tR4/WvKJyKir8oSw2qfWaeP3QEwiwB01tFTXj4fqXiMPtOwVAi3O8bGXpQf+3TQcpITAHSGmESnwGHVcAzSOU7muX3O86vQWQemN+bWWv1hOkzY6WM0fMSat7r+fYwm6fYowunAnLPWlF6nzfVfpXwiInpO2gVHnSEGGGtzQGKEh2NclfcCMMVNuk/su7AtN5kX0t9Cb3yozQFalF8ThzjcyfboY6s3hl0ZWGSusLPtI86OH/rYHvew1eY9uql+8Q2mqoc33WQOTRz6OBzX1n5ep4PhaILd9Ru4tvuFJivHi7+JZtuA3r7+AaDP+XpyVxgfFtcPiPE+v37N19+3bbhZm3Y6wHp5zlptemeIwfRgbo7Tu+kAbzrtrn9t+URE9HUxh9Qqh9VEJJkDks0LUuIEyZyM0h6BUwx/mMMKkT7skOZHMk9IAqdiyATGUFc6DygvX4lykjkegZOU6QXa8Evp+C2Grerqlw7x5PVyPAk8NTcvahmB5yRzbMyEh3K0+UL5vCFzzkuQpjnGdhGRSMRRRV5tPs/n4CklXqBdA/P+qbn+SX5HnFJ6OX9TukgyJyy/xiodIsxSG65/c/lERPS1sO7v78UMmNbW1vDp0yesra2ZSZoQrn2D0WRoJhAtzbdt4HSCxl9ZICIiemLthtUMyY8ubuLkaufr+qFEepZ828LO1RV2ul/ZD28SEdGLtELPEREREdHL86CeIyIiIqKXisERERERkYbBEREREZGGwRERERGRhsERERERkYbBEREREZHmCwVHIVxL+02b0IVlWeWH7WrLedRLfnfJLi//sEDoWrAbdzTq983h9VmVb7c734f5dq9P7NtwF68iU893AdsCLButTlYXh0X+yrxhWvaC8mMftu0nyykR0fNnLh2yePmQZp5aZhX58vIj+Qrs2d+Bky/d0UbVqu6rmV8e5TEFnjO3RMVT4/VpIXCMZWseIHAEemO1xOuzWBR44gVRep5R/ndrgSOlEwwcWaKxC2Y5GaUkXy8mitK/y7sEDkrXiIieryV6jmL4tp1+MrXhhtqnw9iHbVnYuTrBpvbptfQJLw7h2llau09/pYU7S/kt2G7Fp7DIL/YxPzlrn64rP/k21S/UyrZsuDWLoNaJQx+u7eJmfReTSbqK/aPg9XmM6/MY/IMTOHMrHvP6rHJ9Ov0h3nQjHI6vcHLwHlF3iGF/ibVm3k2RrCKc6m4A75arQ63JBMjq0+kAA3MHoL/rYXpQ0e5E9PyYvUaLeo7KnyzTRUCNT4aLP/kG4pQW4pzPry/smTzKn2Q9xykv0hoF4miLo3oqWSQ2ynaK0mPme6SbPVXRM9BcP5GoKPshnwKjZGFTx1smU3u8Piten8zKPUeBOPqCxilen9WvT+QlZT6ol8tRUmqAyKtYmLmFRT1HuoVlB+KssFg1EX0+7XqOYh9jDLRFQTvo7w6gynstFr7DdLCbf7BalN8JBCLpI9rDbDudBxH7GJ+coKt9qra6mzg5maH47KfgnQ7RyY7R6WN3MG334bBN/eL3ONwujn8w1RMbxD7s7jawO8FoaPYooJijMfdwtfOrweuz+vXJ6r15gqudbl7OXA9Ik/gGUwDd0jZen5WuTyrCAMFkiOHpHmbv21TsC4h9YHsGVC7I3ceGusIsMrcT0XPTLjj6Ejp97A6QvJB01tFTXvHCnz9GjzgsVSeE2x1jYy/Kj306MN+aanSGmESnwOGi4YQ+RnPn9jnP7wFe2vXJ6hw4UF5RzujznMDje0nXJ9UfpsPQnf6CDxl1rgAzKNGHHR+D7wKH68BkZKYQ0VemXXDUGWKAsfYFjBjh4RhX5b0ATHGT7hP7LmzLTcbX+1vojQ+1OQyL8mviEIc72R59bPXGsCsDi8wVdrZ9xNnxQx/b4x7mpn5UaapffIOp6uFNN/loHIc+Dse1tZ/X6WA4mmB3/Qau7cJv+1WiNnh9Vr8+j6Wzjh6M92Feny9/fXY95I0LAIdjzJ9cnH7bzDW2N4kB1wawizya9m3Md/uGmF0pbJS6FYnoWTLnGy2acyQSiaeyeQ1KnGD+2yhR4IjK5jyU5iBkcxiK+RBOEIiDZJ6DBI4xXyJ5lOc2pPMY8vKVKCeQKJ2/ACjxAm/B8dNjzT20ORV19TPmdCjHk8BTc/M6lhF4jijHK88DWQmvT16vVa7PynOOkvk78/NpeH3yeq1yfVbhOSJA8qg8cJCmO2aCiJPm0x/Z9Yu8+TRg7ttqEnmi1GM+54noqVj39/diBkxra2v49OkT1tbWzCRNCNe+wahybJ2+PF6fLyZ0Yb3bgtSOyfH6fGtC18K7ra94qJboG9JuWM2Q/GjcJk6udp7kh95oNbw+X1h/BG96MPc7gBlen29Q7ONg6mGXgRHRV2GFniMiIiKil+dBPUdERERELxWDIyIiIiINgyMiIiIiDYMjIiIiIg2DIyIiIiINgyMiIiIiDYMjIiIiIg2DIyIiIiINgyMiIiIiDYMjIiIiIg2DIyIiIiINgyMiIiIiDYMjIiIiIg2DIyIiIiINgyMiIiIiDYMjIiIiIg2DIyIiIiINgyMiIiIiDYMjIiIiIg2DIyIiIiINgyMiIiIiDYMjIiIiIg2DIyIiIiLNFwqOQriWBcv2tW0xfNeGZVmwLAu268IupS8WuhYsy4YfmylEREREy3nU4Mi3XYTmxkp9jCSAo22J/W3MNk4hIhARnG5taKn1+iOBp8yt37bQT4LLdteDiIiIMksERzF8O+vZseGGWu9P7MO2LOxcnWAz7fmxLAuu/s4ch3DtLM0up6WmiJB1/nT6Q0wmQy3V6FmqeuOP/OIYtotQ60lKepcs2H6cBA7ZPtkOpfpZsF0/rUt2nm6a7iIMl8mf72D0jNnlnrFQq7tlw/Xnzq6VOPTh2i5u1ncxmQzRN3d4AN9O6uRn7Zaee6mnbtXzXzbdvP6N7ddUPhERUer+/l7Mh4jk/2Y8pcSLsr8iCRwlUJ6xjyNBaUsmEEc5EtTmT7YpQACIcjyJ8v3N44tIFIijPMk2eQoCpeWJ0mNqWSRwBFCinCDZL0r/FRHPcfKyRNL8Tlq/yBOF5PiR5wiQnEvgKHHSA9TmF5HIU6K8IN8nCpy589fPN3CQl91KFInnKHG8ZTK15ynzmkSl673q+TelN13/pvZrKp+IiCjTLjiKPFHmG0nFtoXBUeCIKr2zVefXld68Ik9URaQQOMUb5tybZ/qGWMpWVQ9Jy0+DsvIjPR+9roEjSAvNy2/Kn2QURxVpqhQsJmWU05cIjrTgrVogzlzdzPrVq23fxzj/uvQW17+5/WrKJyIi0iwxrPZ5dfpbcK5m80NnT6Gzjp7y8vlOxWPUbliqVf4+RpN0exThdABsbmfDOiHc7hgbe1Ex52qwxCSqzhCT6BQ4rBpOQjrHy6ybWb8VrHz+bdLrtGm/VconIqJvSbvgqDPEAGNtjkmM8HCMq/JeAKa4SfeJfRe25SbzTvpb6I0PtTlAZv4QrmXD1ycJxTeYOlvJm2tniMH0YG6Oy7vpAG862YYr7Gz7iLPjhz62xz1stXr372OrN4ZdGVi00Zzft2242fl1OsA6oHrryd/xDaaqhzfd5GTi0MfheL51a3U6GI4m2F2/gWu75bZ8FFcYHxbtC8R4n7fviufflN50/Vu0X235REREOnNIrXJYTUSSOSYqHZZQ4gTJnI/SHoFTDK+YwxaRPqyR5kcyTygZ9lHiOFn5aX4tu0gyp6YYFvHy9MBJyvQCbXindPzqYaXysEs6DyrPn85N0vM6QTpvCaK8SCIv2T8pZ1H+hKec+fPT2icrC+l8q8BTyTk9cOgn8JxkjpCZ8ECeUuIF2jU0r++K59+UXnf9pUX7NZdPRESUsO7v78UMmNbW1vDp0yesra2ZSZoQrn2DUekbZfRS+bYNnE4wzHvqiIiIXqZ2w2qG5Gvxmzi52jF+yJFeIt+2sHN1hZ2u+cOdREREL88KPUdEREREL8+Deo6IiIiIXioGR0REREQaBkdEREREGgZHRERERBoGR0REREQaBkdEREREGgZHRERERBoGR0REREQaBkdEREREGgZHRERERBoGR0REREQaBkdEREREGgZHRERERBoGR0REREQaBkdEREREGgZHRERERBoGR0REREQaBkdEREREGgZHRERERBoGR0REREQaBkdEREREGgZHRERERBoGR89OCNg2EJvbiYiI6HNgcJQJz2FZ+7Csfdj+nZk6x7dt+HoAE7qAZQFuCPh28v9sB9cq/52lZ/sXhQD2AXA6ATra5q9OmJyb7ZsJXz9Xu44LrXr+q+Z/AnX3NzWLfdi2z888RF8JBkeZ/i8QeYvI+8FMmRe62OntYagHMN2N5N+NLrDeS/6/nu4wEsBRwPgw+Xs4ASIPUB4w6qcFAEAfmHztgRGS85DA3PgyjATlC19l1fNfNf8TqLu/qVlniL3eDg71z0JE9Gy1D47ia7h20rNiWfuw3UvjU9AdfPdYSz+GbV+W0kMt3bIv4drH+YfP0C16bUL/HLa1D8s+R/5aUnP8LG/e66P1AllZHcJLLf8xXP86K3lp/sEJnC09qNHkbxgK6BppAxg9Ransk3iWVOppynoRXMC2AMstPsXbblFGHKbpWY+U0eugl+lX5EcMuFqP1rK9FqXj28W5VKZX1K9RRf1Kw48V6Zmsfd30vM1zz9oma5+sffVy9G1VPSZN5x/65XTf2KEpf935VaW7dvU+lpXcQw9Vd38/kG9bsCwbvu/CtixYlgXLdsvNHIdw7TTNsmC7Zi9MDN+1tXQbdun8l0y3/fIlCH3t+DZc8/qZ+efKB/q7HqYHZr2J6Fm6v78X8yEi+b8ZzzmTSN8QzcRxLoo/vSNR3izfJwrOBKpID5wjcYLb/G+JZuLgSDy90OBMgCNRzkyiKNknStPbHV8rPzgT5cyKv+U2L0tEJHD+ECfQklNz5cwJxIEj81kDESiRSEQiTwROOdlJ07J/I09EeUW6p6RUaOBI3jiRV5TtOUnZWVlZHsc4XhSIOFr5kpYJJeIEaR3Sf0VEVFp+JgrK9asViKi0TiIiEiV10/O3qV8dR4kEWgUjrb2lRf09Va6jo4r2zdL1vwMnaSeTuZ9Iu/OXqFw/B9r1bpG/zfl5Wn0Dp+L6RSLA/L3ZSsP9vSJPQZTjac/RSDxVPM88xymdvkSBONr9E3lKlBfk+0SBI9DOvyndU6p8WaNAHOVpx4yM1w+Ubo+m8hOBODCOQ0TPUrvgKLoQhT8Ec48z7f18Jo4q0pQ6097LZuJogdJCwVl1YNLq+LfiqCKA8pQReEUXRv0eGBxFnigYL9RtmEHRssFRtq/+pp3libz0Tc98GG9gepm6yKsOBLI6N6kqV69z2/ot1BCotal/XfuKiEiUBCgZMxjJVAVHc2UZ55//rZ270oKjpvxtzk8Co3w92Hr+5oITSQIOJ72/FSCYe+gfUgJxVJGmlFOKpWvTI09URfsGjlanyDPyl4Oj2vI13lw+InqO2g2rdV6hp36GyFvj8QuKwaXXGE3S7dHvOB0Am9v6sNoKX8BqdfxX2B18TMb0w3OMez9pU0Ou4XY/YGPv9zzv6aDF3KKn0BkCgzHw3kxYQWc9mb80F36MzD2/jOdePwBABxhMk+Gs0AV6e4849ysEumNgLyrOfaDMnVbUByZp2VGUDOFum8NqX6nOOnrKg4gYj5H2/O9jNEm3R1H6+qOff1N6nRBud4yNvSg/9unc9VulfCJ6btoFR3iNrd4H2DXzdHz7GG6Yfsur8wpYB1TvVZr6Glu9v7CtfQssTucQVU3Bmdd8fADoDH8CDi7hH3zEYPd1kRDfYaq+x5tuUp84vMTh+N8ifRmddfQAROb2ZQz3gPGOuRW4ySZg+cDmiZlaow/0xvPzWNrqDIHpQTl6jUNgOmgXIPS3ksnm+vyfw7G+w2r1Qx/o7ZTn+mRzdMJHqH9muAcc+MDBFNhdMKesStP5xzeA6gHdtDKhD4yvivSm/G3Oz7aBMN2h0wHWAfTWtQxIyl11zlGd0E3m3LR7UhuuMD70EWtt8H7cQzK1r4+t3hh2zf3j2zZc4/yVdv616Z0hBtODuTlO76YDvOkk12+qeniTXr849HGoX7+m8nMhZlcKG480V4uInpA5pFY5rCYiIrcSOEfFkJZK5walqZ46E6eUrg+rJfk9I7+Xz0GaiTM3ZGYOe9UfPxN5R4LSXCNtezak5lxI4B0J8jlP1ccvD9sVlu4ad7T+kqyf3pwTEmnDIspJ5xZBxNOGpJwgnTeUluOp5P+BJMNCTvo3kAwL5ZUMSv01+aN0Dmb+mmGsKnr9oUSC9Jh5OWb5ev3aqMhfusHMdGPIUj/nrA2hXQ9937l6LWg/fViw6fz1Ojhe+rc2LNaUv+78RJJ7ppReNayWnUfb4czlBA4ED5xT4yklXqANTc0NS0USOKoYUlNKlFPM8fGUI04pvZy/KV0kEk9LV8orPT0iT0tzPAk8VTrX5vKToTlVmsdERM+VdX9/L2bAtLa2hk+fPmFtbc1MIqSfkN9tQUpfwyf6lsXw7S7GgwiTxp86mOfbNnA6af6VhK9Y6Fp4tyXlX+8gomep5bAalfRH8MxueKJvWfwe4ysHew+Ibnzbws7VFXa6Fqy5nx94IWIfB1NvqdFaIvpy2HNEREREpGHPEREREZGGwRERERGRhsERERERkYbBEREREZGGwRERERGRhsEREdFnEya/Zs6fASF61hgcZcJzWNY+LGsftrbMySK+bZd/5yh0k6UZ3BDw7eT/5fUIADfdblmA+0x/z8U1610lTM7hwb9Js2r+Zyi7/nPX/SFeYPtQGhgdAKeT5Za10bV6fj6Bxte35ySEa5m/mRUjdO1keRvLgu36CH275fJVz0BT+7sWYK0QdDeVH/uwbf/BxX+NGBxl+r9A5C0ir8WCtKGLnd5e+dd8uxvJvxtdYL2X/H9d28HdBjb2isUntmZPt8bVInaL440EzT9T3AckMDcuYdX8C7Q5vzqr5O+PkuvqmQuSPsQTtQ99YX1gskJghLbPzyfQ9Pr2Gfi2i3axTB8jCeBoW0J3Gze7p/nCwZPdN7gx1sd71prafyTAKi89TeV3htjr7SQLu38j2gdH6UKxee+Ke2lEkXfw3WMt/Ri2fVlKD7V0y76Eax/nwWnoFr02oX8O29qHZZ8XT4aa42d5814frRfIyuoQXmr5j+E2LGJbxz84gZOsiDkvv6EUkC0wGfsA9oChlqc/ArxpEp1nkXp2sm5FD0ToJwutWuknBH0Rziy/q/Ve6G/0sZ9suzop0vXjoUXPR7bQa3Z880lSVz+0yF9KX7Jnrc35mT13+qfKNvmbzm9VT9k+QPX568M7Teen35N+eq9k91jT/YcV6/8o5Tec/7L5Xdvo2WtIX6V90eL52VQ+kNTRslb7UFb1+vYoYvh21rNjww213p/Yh21Z2Lk6wWba82NZVrnXJw7h2lma0SMU+zjAHoYd/c2+g+FEW8ol9Mv5jfYL3bTHyY8R+i5sy4KVBmuxn9TbdtPtWlquVL+k56riKjZr0/7Z8yW7zwEkvZbacye7x8x7qab8/q6H6cED6/01MhedXbTwrOeclRdMjGbiOBfFn96RKK9YCDYKzgSqSA+cI3HyhWbT/PnCr9lOZwKkC8pGyT5RtrBjq+Nr5QdnokoL0N7mZYmIBI65sG1irpw5gThwKhakDYqFRCOvvLhn4MwvcGpu91R5Idi5PFF5IVHHWDjWU+XFRh01f0zVYsFRryKfBMZCpukiqKXFT+vq1yK/Y9QtCpIFWpdRd35KW+RV0vKrFm9dqO78NJXt1+QztI9jLNQbafdrsqH5/AInyeMEyb5R+q+0uP9Wrf+q5Tedf1N+T4l4WoOYC0c3pa/avpmF91eL8iVaYeHhmte3R+ApfcHidJFh4/npqarXXUlek0sL/Rr5A0dUZZvpIuP9oWJx8cARIF3wOL0+WZ7IU6XFhgNHlY7pOU75UkaBOMvc/23aP3uN85z5haf1hbqjKFnkuvzm21y+BOI8cGHpr1G74Ci6EDW3Yr25av1MHFWkKXWm3awzcbRAaaHgrDowaXX8W3FUEUB5ygi8ogujfg8MjiJPFIwbvcmiF7RlgqPI01ZtR/J/Mziqyy9Nb/6pqrpWlRV55Rf/uvo15Y+8Il/p0aK+ukXnF3nJG47JMQKmRfml4fx0Ve3X5MnbpyIQNLU5v6p6Zuruv5Xrv2r5DeffmF/SMrQ0882nKX3V9s0sur/alP9cRZ4o8/pUbFsYHFUFP3r+qnRT5ImjIEDyUKo6OFpUTuSp8v76vpEnKi23/FhwPg+l0utuVtx8rZaW91oFr6pdXqh2w2qdV+ipnyHy1nj8gmKg6DVGk3R79DtOB8Dmtj6s9vC5Yu2O/wq7g4/JmGh4jnHvJ21o/hpu9wM29n7P854OWswteixvBsAsMrcC76Ytx+1DoDsG9qLipXuwygDzY1uxfp11QHlzb02QkbnnF7Li+a3qydvnic/vqeu/avmt8veBSbo9ioABgG19WK0u/Ynb98nL/8p1N4Dxe3OrJoTbHWNjL8rnJJ0+Zvt11tFTXl528Rhp71+PpOcA03fmVnqAdsERXmOr9wF2zTwd3z6GG6bf8uq8AtYB1XuVpr7GVu8vbGvfAovTOUTtvi3QfHwA6Ax/Ag4u4R98xGD3dZEQ32GqvsebblKfOLzE4fjfIn0ZnXX0AFSEOot1hgAO5ucJTQcoPTtusglYPrB5UmyPbwDVA7ppIBX6wIMmE06LCNV328896G8B40Mtuo2Bw3GR3lS/pvzoA73xgnkSy1hwfp0hMD0oR+dxmLR/KTZdkL/p/Fb15O3TB3o7xrdP0jkI4Wc4v5Xr36Sp/Ibzb8yPZH5SmObvdIB1AL31dulP3b6ty3+EOUd1QjeZU9PuRb3QGWKAsXZ5YoSHY8yfwTR/iYx9F7blJk+Z/hZ648O8+efyd4bY641hG9fftdO5SfENpqqHN2n7xaGPw8r2e6g+tnpj2HX3F1Zov5wCdkfAHsrz3TpDAOPi9SWOgQPt/aW1ELMrhY1Fc51eGnNIrXJYTUREbiVwjoohLZXODUpTPXUmTildH1ZL8ntGfi+fgzQTZ27IzBz2qj9+JvKOBKW5Rtr2bEjNuZDAOxLkc56qj18etis8rGsxnUeSfbYzx5sjrVteOcm4MbRxYc/I66lijFhPC9Iu0+xvvetU317q9g+K7aWHNqyg1w9KJEjzZN21dfVrk99sH5XOvVjGwvOTivIrhlnq8teeX4v2a/Lk7VORX3+CPuT8ssO3uv8qjt+2/o9SfkV66QWqIl3Prxwj3ZzT0ZC+SvsuStfvr9ryzXKWuC+XEDgQPHhOSiSeUulwkxInCMQxnqNR4BTDU6U5RsnzpxgWS/MDpXlLkVfO72kFRF52bIhyPAk8pZ1LWpbxyG4PPa+T3p95Wdr9GTjFflDp3KW8Biu2n4PiejvaPZIXVvH+suyB0qHKJXN9taz7+3sxA6a1tTV8+vQJa2trZhIhjfDfbUHyrzq05NvAjv6JRAHBKdBvM7RGRPRcxfDtLsaDCJNH+amBEK59g9FkaCa8UI/dfg18G8DpUj8LEboW3m1p3/B74RgcPZBv28DpZJl7i4joZYp92N0Z9h5hHk3oWsWsAuVBvoUA6RHbbyHbQj7W6HjAaIl2jX3Y28DpZLjSz3R9TRgcEREREWlaTsgmIiIi+jYwOCIiIiLSMDgiIiIi0jA4IiIiItIwOCIiIiLSMDgiIiIi0jA4yoTnsKx9WNY+bG2Zk0V82y6tRoDQTX6a3w2TH9iyrHS5gjj5fQnLLi9fke2v/8z7ixG+4HN7CXh9lrbw+f0chXAtC1bp+sYIXTtZnsKyYLs+Qj9dPuMrEq9SZ98tXosfcu1q88eAm94X2X3ymJruP7fiPWYZTeXHPmzbf3DxXyMGR5n+LxB5i8hrsSBt6GKnt1f+AcjuRvLvRhdY7yX/X+8A6ACnHoArJKvipg6mgHKAF/kDZ31AAnMjPRu8Pktb+Pz+fHzbTZaCa9THSAI42pbQ3cbN7mm+6Olk9w1uHnX9sKcVhz78fPG02Pi7hdAFsJsuDjwB1g/TdfVaasrvbwMbp8XiLhsHy5XfpOn+Gwmwylq5TeV3htjr7ZTewl669sFRulBs3rviXhpR5B1891hLP4ZtX5bSQy3dsi/h2sd5cBq6Ra9N6J/DtvZh2efF/VVz/Cxv3uuj9QJZWR3CSy3/MdyGRWzr+AcncLYW/I5pfkMpQF+gz/GK1ZJjH+jtaYlIFou0008dlj2/CKabpvlxuiiqBdj6ApLpQprZ9myfrIGzhTbzTzbaiuFZHjtdlDLv1VpigcpS+fb8C8PC47dlfjKzyz0fjeXXtE/2SSmrs97Wmab2r7t+Wflums/MC8yfn+0ni5nmN3lN+W00XZ9Vy1+1/nXt26b9Gq8/kjpa1moLry56fq8shm9nPTs23FDr/Yl92JaFnasTbKY9P5ZllTsn4hCunaUZvSuxjwPsYdjR3+w6GE60pSBCv5zfuD6hm/Y4+TFC34VtWbDSYC32k3rbbrpdS8uV6pf0XC0R2qDTH+JNN8Lh+AonB+8RdYcYLrPs0rsp8Ebbv7sBvFviHm+T3wyWs1VyH1Ob+y97vmTPQ6D+9U9XU35/18P0YLnr9lUzF51dtPCs55yVF5yLZuI4F8Wf3pEor1gINgrOBKpID5wjcfKFZtP8+cKv2U5nAqQLykbJPlGa3u74WvnBmajSArS3eVkiIoFjLmybmCtnTiAOnIoFaYNi4b/IMxZt9ZJFLIN0sT9HJYtKKn0ByKi8SKSjLzyZCpzkGE6QHif9V6S8kGYUJYsM6o3rGItNRkGx+G3kaYvYOkndIynq2SgwFtpMz1FfOLLu+G14SsTTKhM4y5Xf1D6eca7ZtdLVtX/T9fNUuY0cZVwfYyHUSLufkg315ddqcX1WKv+R6l/Xvo3t13D9k40rLLxa8/x+BJ7SFxxNFyk1Fl71VNXrjiSvSaWFWI38gaMtgLpIZLw+ViyuHTgCpAumptcnyxN5qrQYbOCo0jE9xyldfokCceauT73kGJ7RVi05xiK8kVe9+PQijfmD5DVGpQu7LnluzVrcf0p7DTcXPm56/WtTvgTiPHRh3K9Qu+AouhA1t2K9uWr9TBxVpCl1pj1ZZ+JogdJCwVl1YNLq+LfiqCKA8pQReEUXRv0eGBxFnigYT/QmWXAk6U2ZPan04CjytFXZkfzfrF/VG7ZUPVGNfSOvYkVv7U1Czx84xWrkZsCwSFW99DKbjt+Kvmq9sep5U/lN7SMV52qmL9qWabp+teUH8/UzNZVfp6reZpusUv5j1b+qnpm69mu6/s9dutp507aFwVFV8KPnr0o3RZ62qj1EqergaFE5kafK++v7Rp6oilXtUfkhc7HA85L9o0Ac/YNSG43BTYOm/JFnPN+N4ORzUOnzyrxwZl2l4blWw6u6L16odsNqnVfoqZ8h8tZ4/KItkvcao0m6PfodpwNgc1sfVnv4XLF2x3+F3cHHZEw0PMe495M2J+gabvcDNvZ+z/OeDlrMLXp0nWTMem6eUQh0x8BeVLy0D1YZQDZ01gHlzb11QEbmnk/jUY7fT8f7BYgiYABgO+0yfpTyV/HE14/l1/vi1/+Z624A4/fmVk0ItzvGxl6Uz0k6feTr01NeXnbxWG6R1f5wmOzf6WM0XCYnkjmfkbGpt25sqNOQ/3BcHoZaB/D+we94D9dziukbtJJ2wRFeY6v3AXbNPB3fPoYbpt/y6rwC1gHVe5WmvsZW7y9sa98Ci9M5RO0m9TcfHwA6w5+Ag0v4Bx8x2H1dJMR3mKrv8aab1CcOL3E4/rdIX0ZnHT3MP09WEt8Aqgd002gu9IFlJkt2hgDGRfQZx8BBtqw1ksCiN56f5/FY+lvA+FCLfuPkxaLYYfXj2zaQTcDsdJIXn/zFqaH8xvZJZXMEQh/FsuAtrHr90Ad6O8a3Q9I5AuEjlN90fVYt/6nr36jh+uceYc5RndBN5tS0e1ErdIYYYKw1X4zwcJwvoF6Y5rdo7LuwLTe5pP0t9MaH+dNjLn9niL3eGLZxfVw7nZsU32CqeniTXp849HH4yNdnqzeG3Xh9ntCuV54DdDgG5uaN1twfTfk3AERa+s20+H/mofdHawrYHQF7KM/HbPv61yjE7EphY9Fcp5fGHFKrHFYTEZFbCZyjYkhLpXOD0lRPnYlTSteH1ZL8npHfy+cgzcSZGzIzh73qj5+JvCNBaa6Rtj0bUnMuJPCOBPmcp+rjl4ftCkt1LZa6/PUx3Wxb2vXvqWKb46V/Z125wdxnYoE5LKENOykn6dYtdZum80yyvCqd26GXnc2LQjoendWpzblG+rCXEgnScvPu3EXHb0k5Rn6z27qp/Ib20eufpWft0Kb9666fnhakXdrZ33kdKuqvP4Hqym+j6fqsWv5K9W9o34e239z9lR3naYbbAgeCB8/JiMRTKh1uUuIEgTjGUEgUOMXwVGmOUXJ9i2GxND9QmrcUeeX8nlZA5GXHhijHk8BT2rmkZRmPrHn1vMlLilOUpV2fwCn2g0rnLuU1+Ayy53TpvtE13B+1+Y37b+7eW/X+aOCkz+so+79Zz4rXt2Urkg7VLpnrq2Xd39+LGTCtra3h06dPWFtbM5MI6SeAd1uQ/Ksez5BvAzhF+fcGKPdc2yf2gcN1FF8joq9DDN/uYjyIMHmUeyqEa99gNDcET1+nx74/VvSA17/QtfBuS/uG4wvXcliNSvojeNODuW9BfnH6V5lng6Vu/G/C19A+nSGw9W7+q/b0vMXvMb5ysPcI91TytflNnFztGD/kSF+tR7w/HmyV17/Yx8HUw+43EhgBAHuOiJ6NELA3gSsAgWCp2apERPRoGBwRERERaTisRkRERKRhcERERESkYXBEREREpGFwRERERKRhcERE1FqY/Fr7c/sZDyJ6VAyOMuE5LGsflrUPW1vmZBHftsu/cxS6ye9HuGHyA1uWVV5OATHgptstC3Cf6e+XuGa9q4TJOTz4N1hWzf8MZdd/7rq3oOfNHrbb/g3YtQCr5Rv2Z7m+L1UI2AfA6QRY4idiSlq1/xNofH16TkK4llX8xlO27Ib+sF1tuZR6ye9GGa/XC4SuVV5mpZJRv8+h7vqZrx9V9arLj+R3jGzbb/US8q1gcJTp/wKRt4i8FgvShi52envl39DqbiT/bnSB9V7y/3VtB3cb2NjLftQd2JpVr+HzlOwWxxtJix8H6wMSmBuXsGr+BdqcX51V8vdHyXX1HrBgZ3+U5AvyH/1P1kfKFtZtMhKg7WE/y/V9qfrAZIXACG3b/wk0vT59Br7ttvxt0z5GEsDJ/xwh8hScoFi0NtoDNls+P/ojaf207I+kxS9YG/X7HOquX/ba4yggqlrYvCE/svX3dpKF2wlYKjhKF4rNe1fcSyPKvIPvHmvpx7Dty1J6qKVb9iVc+1gLfotem9A/h23tw7LPiydTzfGzvHmvj9YLZGV1CC+1/MdwGxaxreMfnMCZW7Qwld9wqlilOfYB7AH6StL9EeBNk+g9i+Szk3UreiBCX/uFU7u8yGaW39U+Qehv9LGfbLs6KX/C0J8ITT0f2UKi2fHNJ1Fd/dAifyl9yZ61Nudn9tzpn67a5G86v6egr/rdpn0irY5mz9NTX986TfcnzONXnV/F9dOHt5bN79rGJ+yG9Kbz15+zfnqe+jk2tX9T+UBSR8ta7UNV1evTo4jh23bas2PDDbXeldiHbVnYuTrBptb7U1p/NQ7h2llauiBuA2U8P4r8Fmy3ohck8ot9zJ4nrXeqsueoqX6hVrZlw628fo9g1etXk7+/62F6UNFu3ypz0dlFC896zpmxzudMHOei+NM7EuUVC8FGwZlAFemBcyROvtBsmj9f+DXb6UyAdEHZKNknStPbHV8rPzgTVVqA9jYvS0QkcMyFbRNz5cwJxIFTsRZrYCwsqy1eGCxY5E/f7qnyQqZzeaLyIqBOxcKn+mKsjpo/plqwoKLOq8gngbHQa7rI4v9v7/x121a2Nf7xCdwE57wAZcA+ui8wxEGA3clpjOBArbvhBXYhN+4M5AZw54asErlTKxwHbjbZnSKG/QJH2wFCvsBOdpE8wdyCQ3I4osiRJXs7zvcDCFtcXDNrZvhnaWaJq5EYs8s+B31p2ZYlRYLSdehqn7CSqGaJZX+Pfmf7DFr7zwEzuSqMJJIlff0jdBLZUifTfW7Tap/D+Li2fxV952df+6SVyDYzrjfloB8JpSLD4EQ229cnd2l/IgubZFIcm+m/Jq39r9zKV5k+N1rGtZeO+9MWiISZUFUnmbWur0i03TdVcU9tJNJd1jeT25bJdc1ujKRsdnWWKGmMfySKJLzVMyDTdVZH6N2RMJLllvTbp1RmPV/WSE7uhMP4ya5E0Q76KlHyoRLj/oC4zRzl15hf/BeDcjbGewtvMMfFxdfqC6Y/eYnhfF4dc3QGJLN/auknXC3+genoRV2mv4ep+t+lGWYR/Qs30z34fnGM77vW/y8M5x8rrzc++4LxyV5dcP4J50e1/tmiFq1F/hkLLDndeilCT7n7E0BNa9Hn+1ZmkP8GHBnfjNuKPJ3WU/6Heup0G6RXwPjEWE7wgZNx85gu+/r08xi4sGZtBgfAxV19zCbkMTA8bS6H+CNgOHeL00FP+7aFuayWnQJHembEqX8EMJvUbfRHwHixPAPURt/4YEvtX3V+9rYvBRZjYGQuAxjXW68+gMkpMD+o5Wco+stV7tr+aFYkDfa1jdb9bSVO5fv6/DDuLc503J82JY8xx9i4l/sYnYydV3qRXmExPjGGt13fXFZT2SnujnQcUR5jfnGBgRmTNDjAxcWdcfoLRLNJ8TxBMTYn4wWuHK+PXvvy33B+VNd/7+fLSjYdPxf9EfbFLe4ye//PiZtz5L/AUPwCpd5Y22sj/dMepjd6f/YrZmPg4MhcVnN/Di3hVP8LnIy/FGum6QfMhy+Ni/UTwsHv2D/9tdKdjR1ii7bFqzFaz7irheO6fwoM5sBpVj88x/at469kQ/v8XUBEjXmT+z8EHoIN23cf/BEwBpA9hf554PZv2j4n/RFwo/dnWdG3jZiVLvkDt//By3+G+COclLdVfxdDEdWOU7VNHyk9YYpwMMf+aVbVPXsK4xe3LI8TZ9ycI+zhcPg7go44nTh4jzDVv/LyXwC7gBiWM0V7OBz+B0fGr8ByHUO0tHbbSn/9QDF7hbPrllmjP7EQf8OrQWFPnl7jfP5HLV8HfxdD/cxyxp8AOFuOE1qMm8lFP2v3MY2Bg4t6f/4ZEENgoB2pNAbmt7XcmUXtocahe+zC6BCYnxvebQ6cz2t5n319+tCzOBuv069onz8BFmdN7zzXsxEN33SFfl/7HoI8BY7LOlz657Z4mJf2pzEwHzbPr1X0jc+Dt7+vfSNgeGz9ukbHGKWlvEsfRXxSGWTi+8CuFdPVJX/o9juXv4WYoy7KuBu3m3KNP8EYc2N4cqTncyy3YFHd4vI4ROCFxSk3OsRwfm7EAK3SN8hTnBvXx+FwjqBr/HGL46MYeVl/GuNoPsSq0NEGffbln7EQQ7zS45enMc7bxu++/ftopLi7FdhfXhb5ObHjjVbFHCn1VSXynQL+r9iEjg3S0khcKtmQXzZCBJT6qiJLP6pikO6ULPcbW3PNtrv+kix6p9CINTL2a10hP6okeqdQxTy11w9cLq1JK71+vf56so7jKL8b2vE0WVLEjQBFbEYki//NmCRTNxL1GrIpS8rYB/3ZXEA29zdiTJJ6f2Mz1qVN+yCUSrROue7eZZ+Lvt0/QsdurMPK9qmW8lvimbr0O9vn0H9dmPWamx1ztqp/ZNmn0Qr7HezrG5/O9vfgdH52tG+VvHGDaZGb+kJacmt8++Sd7V/Rv1X1K+Rm/3eWb5fjeF6tSSKXY3ncyVQkyrggoWSSKGldY1kilShjhhoxPMX5J0UdTySTREkUcUIqkVa8UbE1Y4N0HFBVvlBCJioz25VEK+rXdS1tRkxSl32qGRMlZKSSSCz15Wb928Gq+0fjHHQgi5QQkdMl/TPgffv2TdkO087ODr5//46dnR1bRKC/AVwdQk1dvnYYxIExG4AiTiSZNWMpCCHk0ckRBwPMx5nDT9ldSBEGnzFt+1n5T8m2+3f7pKGHq0OFdR9rzxU6R/ckDgJgdrMUUE4IIT8ceYxgcIfTLcTppKFXRwWICIoO0lb790HIYwRHwOxm4vwbgucOnSNCCCGEEAPHgGxCCCGEkJ8DOkeEEEIIIQZ0jgghhBBCDOgcEUIIIYQY0DkihBBCCDGgc0QIIYQQYkDnqCT9UCWlDYw0J6uIA530sCQNi1f7h2nxskfP0+kO8iLNgaeTiNrHB2Z+p+dC+ozb9hzY8viELef3OqyjH5bXVRdbbp8LK6//p0iK0PPglf1TprUwtyA00mV0k4YePM+6H64gDT0EvQda9m2RPA4cU1a1EIf1vby3DRZ5Wuu36up0ON6K8vMYQRA7XSJkO9A5Khm9hlJvkEUOCWnTEMfD0+YLIAf7xd/9AbCrM47v+gB8YBYVua/OjavybAEICTzLF6SNAJXYO8mTYcvjM1VYSqG+DuvoTxX637y65fa5sPL6fzziIHTMMzrCVCWQ1ccpskg0st5np8BBIzHvakZThchx/EZT5fCGaMu+LZCnMeLK28utzw6kIYATnZz4Btg9Xy+pqz8CJlPgdEWrgrM68XA2A+ZHzfL9CU6Hx41HCHlY3J0jnSi2ml0Jry0v9k/E4XtD/h5BcN2Qp4bcC64RBu8rBzkN61mbNP6AwHsLL/hQnx8d9Ze61ayPMQvklTak14b+e4Q9SWy7iM8uIFdlLKxuiAIwE/jJCFhcFf/nMTA8NYQokk02vjlYV0GoZXGuk6J6QGAmoDS+eQRhfUzZwWWiTk9voZFxvNQJdFLLalZrjQSXjfJbskGvrN+VHAj1N3LPK/43v1n2lt/RP+U3/dJms69L+vq/a/zK8kOtZ+sCy+0L4iIZanWSd5TvQt/4bFo+AGRGGUHYnAnqHZ8e/fKcLMfAZivt20Ji11XX/8bkiINAz+wECFNjdiWPEXgejm8vcGDM/jRmSPIUYVDK3GZPhJmYt6HvIQhbZjGyuD7GnnkyZqdaZ4767EuNsr0AYev4rcYfTfBqkOF8fouLs9+QDSaYrJO26WoBvDKOH+wDV+vZ0MnNTZ1GyveBsX0AMDqJsDhr6XfyMNhJZ1clno3kpZXH805J+bH+GL1TIqoTwWbJpYKo5Yl8p2SVaFbrV4lfy4MuFaATymbFMZmWu9VvlJ9cKtFIQPu1KksppRJpJ7YtWCpniURJMyGhsb9KFJlFVlLPqEiCmcgi0aYURUJAYSaQzJpJJmVL0sBEFnXIRNej/yrVTMSZZUUSUbNzpZWsMkvq5LdZZCSxlYXtmart7CWxEnXqNpqJJ7vqdyESSkWGMYlcr/y+/omstpZjZdLV/33jF4lmH0lhjY+VSDUzzqdiR3f5nTiMz0blq6I/RVSXkek6S3rHp0e/JLL6Taktti/bILFrx/W/BSJhJizVSVatxK6RaLsvqeKe1Ui0uqxvJk4tk6s2Lg8pG92nskRJY/wiUSRhre6xma6zOkLvjoSVMFY52adUZt2/10/+nUVFmc2+dERaSYCzqD15dR9t9xWblWUnSj5E4lrSiptzlH1UYiljvZ21/k5JUcuEuDRO9jslDUdpJcllu2PiVP9XJUXtQEXCcryyj5Z993SOskgJWDeKPkrnSOmHcnnimzf/LDKyoqP437Zv1YXVdjGZx2ZGtvbGpus39RNZZzO3HYZVtNllltlXvxNm1ngra3pf+X39o1raastX7SvpG7/O8pNl+2z6yu+izW67TzYpX2nn0+6ass1946N69O19dlseo31/JTpbet++lc5RIpcdEks/i0TzfpglSpZORGZks1+Rtb7N4VgqU+9bssXBPpVFSoq6biHWd46SKCrszRIlzS9aLjyWc5RF7V8KNNE92k3uh9uymv8CQ/ELlHpjba+NJHp7mN7o/dmvmI2BgyNzWc0t3rIVp/pf4GT8pViTTT9gPnxphCZ8Qjj4Hfunv1a6s7FDbNHW8Ys166U4oxQYzOs1Z6WAseMivgv+LiCipUcT1NQ+8mHYSv0jvd6vgCwrpp3LmIitlL8JDzx+P3r5z358niH+CCdj4C4rxm8ooioeqd4eK4lqinAwx/5pVtU9u8f4jSaTwl5/hOlkXctvgczaZS47boM4BM53gZvHui5IF27OEfZwOPwdQUecThy8R5jqX3n5L4BdQAxfaOkeDof/wZHxK7BcxxAtrS230l8/APiTl8DZNeKzLxif7NWC/E8sxN/walDYk6fXOJ//UcvXwd/FEMvXyUbknwExBAbam0tjYH5rH7UafwJgXnufeQ6clWmxUTgWw/mKOIstMDoE5ueG95sD53PzgM3rDwJUQQy+D+yaN6ee8nv7R/NZH5DGqNOKO7Dp+GEEDI+bsTRlDE26hfL7xmfT8oHi4XEUN2Ok5kMUT6Oe8QF69HvYWvu2EHPURRl343bTq/EnGGNunB450vM5lluwqE7hPA4ReGHRJaNDDOfnRgzQKn2DPMX5cXnECIfDOYKe8Ts+ipGX9acxjuZDrArNbNBnX/4ZCzHEKz1+eRrjvHX8HpCTqL4/AMX5tdS4+54/Ot4QJ8BUlxm3xM0hxd2twP5WY9nISuwltdZlNaWUUl9VIt/VS1pCxwZpaSQulWzIzWW1Qj+y9KMqBulOyaUlM3vZq7v+kix6p9CINTL2l0tq8qNKoncKVcxTe/3NZbuataY2G0sKZkxCuU9PoUai3icj/bmcyk2WvnMr2MsCxrKTkEXsUGP6VsdhlLpCx86YZZdxUdDxOKVNLm3NzGUvoVSiy62mnlfV74iQlr4ZY6Icyu/pH9P+Ul72g0v/d42fKUv01Hr5ubKhxX7zAuoq34W+8dmkfFmWaZzX64xPr/6K/m/E9W2jfWU9q5c1NiGRy7E87mQqEmVckFAySZS0lnWyRNbLX40YnqJ/6mUprY8iTkglsmXJDNZSl44DqsoXSshEZWa7EmP5rVG/rmtpM5YBu+xTxXJcZZeMVBKJDfrynpT3BFjxihUd54+0z13j3Fy17GzfHvVSY1vNZPt43759U7bDtLOzg+/fv2NnZ8cWEehvgFeHUKWX/xSJAwAzh589/6Q81f7J42Jq/SmfW+Qe5IiDAebjzOGn7C6kCIPPmC4t0ZPnShp6uDpUvDU8Eo7LaqTBaIpocdb6i+K/FPOn0nfjp/fg/6v5EfrHnwCHVy1T6uSHJv8N81uJ0y2cc8VLFw9wcXv8IC9KJE+QPMbZIsIJHaNHgzNHhDwZUiA4AG4BJMot3oYQQsjWoXNECCGEEGLAZTVCCCGEEAM6R4QQQgghBnSOCCGEEEIM6BwRQgghhBjQOSKEkK2RFm9zf2qv+SCErAWdo5L0AzzvLTzvLQIjzckq4iBovucoDYv354Rp8YJBz2umgyhfEV++Zyd8ou8nCW2720iLNtz7HSub6vfx0OWvSegBHh+Yz58UCM6A2Q1w39cZOV1/fwG997enRIrQ86x3QOWIw6BI3+J5CMIQgeP9oXivlHW/f27kMYIg5i3KgM5Ryeg1lHqDLHJISJuGOB6eNt8hONgv/u4PgN1h8f+ucUB4BOyf1i+HP7y7Rw6eDQkc6psqh5cjjgCV2DvXYFP9Ph66/DWZKmD9PJnkh2ME3GzgGMH1+vsL6Lu/PQJxEDq+G3WEqUogjT15fIS7/VmduPZQt8eB0VQheu7Xrz/B6fC4SNxOgLWcI50otppdCa8tL/NPxOF7Q/4eQXDdkKeG3AuuEQbvK288DetZmzT+gMB7Cy/4UF8MHfWXutWsjzEL5JU2pNeG/nuEPUlsu4jPLiCXkg5qqhuGAMoEgXkM4BQwM0GPpkC0KL59ld/EysaGenbJ/KqSxsYbnoNmEs9SP9Tf7jyv6QjlcbHv9qKWm/XB+GZo11tSJkIt67cvoi774KDfkN9jZu2hy1+a+QusmSlL3vatNDP6KAibM0nmmMd6LBpjuMr+cpYs1PKwHksn/eqA7vb1jW+ffhd95y/uYX8QN5e31tVfsr9H3tc/fePbd/31ld9nX3mM5232pazt/rYVcsRBObMTIEyN2Z88RuB5OL69wIGe+fE8r5m0PE8RBqUsaE1ovkBWnQ7+aIKbRuoVa2YpiJduIcjiuo4gNBLllrNLHoI4RxqHCMpjygMa9nkIwnKWpmxnqOUh0nQd/eoAa2YsaM6MpYbtXoBw6fwBRicRFmd2uT8xdtLZVYlnI3lp5ZG8U1J+rD9G75SI6kSwWXKpIGp5It8pWSWa1fpV4tfyoEsF6ISyWXFMpuVu9RvlJ5dKNBLQfq3KUkqpRNqJbQuWylkiUdJMmGjsbyaWNZIPJnYS2Jb9kWgmGlzSyZpJMmVL4lMzWacUy3WKloSINlGLnkqsRKA6iWgj8WWXfQ760rItS4oEoU48dPllvxgdnshm+cJKYpolllwnmiyPybTNJoksziGZ6PNI/1U99meRkeRWFudeps+B0uQufeXQvs7xddHvoe/87bNfWol6M+N6VA76ffb3yfv6R/WMb0nr9af6y++1TxVlrEqM2kvH/W0LRMJMIquT3Fr2R6LtvquUUomSjUS3bfrFvjIxrpBR43nQrL8YG2kkeY1EkQS30sl0nYZKkcBXJ+TV41s/v2RzqLNESeP6FTqJbhbJIiFvplQiRfWM6tRXRWJeERWJgAuxXGp/8/nXljw9UfKxk/k+Ydyco+yjEksZ6+2s9XdKilomxKVxst4paThKK0ku2x0Tp/q/KilqByoSluOVfbTsu6dzlEVKwDpR+1h1w1vHOcoiI+s4iv/tm2OXvtrAOWorK4uaN98u+/r0V2Wldr0BP3T5ShUPh0b7jAd5FtUZ5k2k8XC2nSflOGbKwX6zrYmsbSnL79MvFFe3T/WMr1L9+n109UWv/ZYjatOrrxzs75H39k/H+Jq0XX/Kpfwe+54yOtt8376VzlEilbD7rEXfpOE8ZJESLddvImtHYcl5UkplUe28KLXCDqXL105Zc9PtMW1NpIIutCq/T79QVFLUMtFwFosymvI256hwAtv2/4y4Lav5LzAUv0CpN9b22kj/tIfpjd6f/YrZGDg4MpfVNohHdar/BU7GX4o10/QD5sOXxtL9J4SD37F/+mulOxs7xBZti1dj4C6z9wJXC8d1+xQYzIHTrL61j5/SIviG9vm7gIhq3Wqb2kfej62UPwJutF6WAWMAR/ayxQOxqf1O+l3tcxnfLv0NcbK/Ayf9Pvu75C79swku5XfZR2z80SHk7d3y0tlD4O9iKKIq3qnepm7pE530R5je6P1Zpp+/9fkZDubYP83qmKul84fYuDlH2MPh8HcEHXE6cfAeYap/5eW/AHYBMXyhpXs4HP4HR8avwHIdQ9S2NrxMf/0A4E9eAmfXiM++YHyyVwvyP7EQf8OrQWFPnl7jfP5HLV8HfxdDAC2uzmr8CYCz5TihxbiZXPRzGYAVAwcX9f78MyCGwEA7UmkMzG9ruTOL2kONQ/fYg9EhMD83vNscOJ/X8j77+vQxAobzljgKRx66fKCIXymDDHwf2AUw3NWfJ8DirOn952kxvpXve1s8rMpj0hiYDx2Ty25qv4N+V/v6xhc9+hvTZ/8IGB43Y3XKGKO0lHfpO9jfJXfpn01wKb/LvootxBx1kYZFTIvbTb3Gn2CMuTF8OdLzOZZ7cFHdIvM4ROCFxeU0OsRwfm7EANn6KUIvQGwGCeWfsZCHxeXnTzBenFk/Lk5xtRjjlXH9Hh/FyMv60xhH8yFWhZ42GeFwOEfQdf510q8fBwFCa/yFcX4uxBCv9PmTpzHO7fMHAJDi7lZgf6uxZD8w9pJa67KaUkqpryqR7+olLaFjg7Q0EpdKNuTmslqhH1n6URWDdKfk0pKZvezVXX9JFr1TaMQaGfvLJTX5USXRO4Uq5qm9/uayXc39ph51HEz53c+Od8mMaXEhdewImstupm4kjDgTQ5bo6fvysznNa+5vTLsn9f7GZiw7mPZBKJVonXI6uMs+F327f4SOzXDlocsX0tK3ly3s8o3xlaVNxvKOS/83zLPLL+03dGVSj3GU1WNSzN2v0Nf0ta9vfPv0u3A6f3vsb5M31xWW5eu0v0/e2T9947tCbl5/neU72KeUUc86y8nuJBIK945ZyVQkhF72EUomRcxP44hE1stLS8tG5rKS1kcRJ6R0LI2UZfla31BXKlORIRciquRVuxJjeatRv67L2pq3Fx0HVenr2CRTV1+/AJSIMpVFxfFFOav0CyIhl9tn9E9ZFnS8VRKJ5bHSy3v3Gr5niPft2zdlO0w7Ozv4/v07dnZ2bBGB/oZ0dQg1dfraUBMHwLHpsQsgmQEjl6U1Qgh5quSIgwHm4ww3W3kVQYow+Ixp4xdl5CFJQw9XhwrrPtaeK3SO7kkcBMDs5km+koQQQh6VPEYwuMOpaxxNB2no1VEFIoKig/Tw5DGCI2B2M9noNV3PCTpHhBBCCCEGjgHZhBBCCCE/B3SOCCGEEEIM6BwRQgghhBj88M5RmUuGEEIIIWQb/PDOESGEEELINqFzRAghhBBisLZzlIbv4Xlv9fZ+Kf1HGr5FYKQJIYQQQgj5kVjvPUf5NYKjr5jdvH4yL4oq442UWmoGIYQQQsjaOM8cpeFbeIP/4Pb2vxiUM0fBtXHAh2pGqTlz9Amh9xZe8AFh8Bae9wFp+gGB3ldPPP2J2JiVCsL3CMzydaLaWn7dyPNJCCGEELINnJ2j0fQNVPYLhPgFSr0ptpt/Gge8hlJvkEV/N9UA7GGa/QJx+wX7szfIIuDgADjN3iAZfsGV9o7y+N+Y779EpsueHf6tkZU5Pv+Ekxtdr3qDm5MXOA8N54kQQgghZAs4O0cbI/6BiQ/4uwDkHkY+MNivxf7kJYbzeTUrdXQGJDPtfOXXmF8YM1beW3iDOS4uvm6cx4cQQgghxOTxnKNe9jAtZ4ayXzEbAwdHembIf4GhOWNVba+NZTlCCCGEkM15Ms5RHLxHmOpYJf8FsAuI4Qst3cPh8HcE8SdThRBCCCFk6zj/Wi0O3uLYDAICADmGmu7poOs5Liwx8D9I1B6uSpkcQx1+gnfwX4joV8zwbwyO/4BM3mD/7APuhl9wcfFHoSr+B8nsNUbVz+L+RBr+GweV/O8Qw5f4crGPnL9WI4QQQsiWcHaOnir8KT8hhBBCtsmTWVYjhBBCCHkK0DkihBBCCDGgc0QIIYQQYvDDO0dKKcYbEUIIIWRr/PDOESGEEELINqFzRAghhBBiQOeIEEIIIcSAzhEhhBBCiMHazlEaAp5Xb6GV3CwNgSBu7tsKaV3ng5TvyIO1jxBCCCFPgvXekJ0DwREwuwGqrB6PTB4DRwBuJrbkrycOgN0bYGQLCCGEEPLD4DxzlIaANwBub4FBOXMUmAesntkJ9bFhUMjTFAj0vmriKa3lngeE95idqfQDII2XbYmNWa/ArNuYEQviQrfNvlXtQ14cf3wLHLTMqjm1v8c+QgghhDwOzs7RaAqoDBACUEpvN+YBxb4sMvZpphkgboH9WSE/OABOMyAZAlelBzACTmZ12Yd3y0t2XcQBsH+q9WfA5zkgonqGKQ4AnNTl38yAqwDItf5oCqgEuD0Gzu6AWVaUM6gOWN0++MCNAiIBJGXfKGCqp5Bc2t9nHyGEEEIeB2fnaGMEMPEBfxeABEY+MNg35DlwflTPnJwtDFkfOTAHMCnXs3xgcmrJh0X9FT5wOAR+s7wPEQE3U8D3i2P8ba0fdrV/DfsIIYQQ8rA8nnPUQzgwZn4UMBvbRxBCCCGEPDxPwznKgYUAXg30xxQ4n9sHdeADYwBxOcuSA/GZJV8Ycn3M1QJ4ta2ZIc1nXUeu45acJn4e0T5CCCGE9PDt2zdlb0qp6m9JJKpIo3qTtVzaMr0lpkwqpZLifxEplUXF/zKp/weUElKpRH+Osv7yKxtKG0WhLyJDqJSKpFGHsHRbypbGAW1yu/4sUUqUMqFUYtve0X7VYx8hhBBCHof1fsr/A5HGwNkT/ck/IYQQQp4uT2NZbUvExqsAzu6AGR0jQgghhKzJs505IoQQQgi5D07OkefZR5DHRC2NECGEEEIeCifniBBCCCHkZ+FZxRwRQgghhGwKnSNCCCGEEAM6R4QQQgghBnSOCCGEEEIM6BwRQgghhBjQOSKEEEIIMaBzRAghhBBiQOeIEEIIIcTg/wFfDyqEVOSwQAAAAABJRU5ErkJggg==;" vertex="1" parent="1">
          <mxGeometry x="60" y="150" width="730.98" height="820" as="geometry" />
        </mxCell>
      </root>
    </mxGraphModel>
  </diagram>
</mxfile>
